<svg width="195" height="35" viewBox="0 0 195 35" fill="none" xmlns="http://www.w3.org/2000/svg">
<path d="M12.5179 5.96404C14.7351 1.98801 15.8428 0 17.5 0C19.1572 0 20.2649 1.98801 22.4821 5.96404L23.0561 6.99304C23.6861 8.12355 24.0011 8.68881 24.4911 9.06156C24.9811 9.43431 25.5936 9.57256 26.8185 9.84906L27.9315 10.1011C32.2364 11.0758 34.3871 11.5623 34.8998 13.2091C35.4108 14.8541 33.9444 16.5709 31.0097 20.0026L30.2502 20.8899C29.4172 21.8646 28.999 22.3529 28.8117 22.9549C28.6245 23.5587 28.6875 24.2097 28.8135 25.5099L28.929 26.6947C29.3717 31.2744 29.594 33.5635 28.2535 34.5802C26.913 35.597 24.8971 34.6695 20.8687 32.8145L19.8239 32.335C18.6795 31.8065 18.1072 31.544 17.5 31.544C16.8928 31.544 16.3205 31.8065 15.1761 32.335L14.1331 32.8145C10.1029 34.6695 8.08697 35.597 6.74825 34.582C5.40603 33.5635 5.62828 31.2744 6.07102 26.6947L6.18652 25.5117C6.31251 24.2097 6.37551 23.5587 6.18652 22.9566C6.00102 22.3529 5.58278 21.8646 4.7498 20.8916L3.99032 20.0026C1.05564 16.5726 -0.410829 14.8558 0.100159 13.2091C0.611147 11.5623 2.76535 11.0741 7.07024 10.1011L8.18322 9.84906C9.40644 9.57256 10.0172 9.43431 10.5089 9.06156C11.0007 8.68881 11.3139 8.12355 11.9439 6.99304L12.5179 5.96404Z" fill="#FFD900"/>
<path d="M52.5179 5.96404C54.7351 1.98801 55.8428 0 57.5 0C59.1572 0 60.2649 1.98801 62.4821 5.96404L63.0561 6.99304C63.6861 8.12355 64.0011 8.68881 64.4911 9.06156C64.9811 9.43431 65.5936 9.57256 66.8185 9.84906L67.9315 10.1011C72.2364 11.0758 74.3871 11.5623 74.8998 13.2091C75.4108 14.8541 73.9444 16.5709 71.0097 20.0026L70.2502 20.8899C69.4172 21.8646 68.999 22.3529 68.8117 22.9549C68.6245 23.5587 68.6875 24.2097 68.8135 25.5099L68.929 26.6947C69.3717 31.2744 69.594 33.5635 68.2535 34.5802C66.913 35.597 64.8971 34.6695 60.8687 32.8145L59.8239 32.335C58.6795 31.8065 58.1072 31.544 57.5 31.544C56.8928 31.544 56.3205 31.8065 55.1761 32.335L54.1331 32.8145C50.1029 34.6695 48.087 35.597 46.7483 34.582C45.406 33.5635 45.6283 31.2744 46.071 26.6947L46.1865 25.5117C46.3125 24.2097 46.3755 23.5587 46.1865 22.9566C46.001 22.3529 45.5828 21.8646 44.7498 20.8916L43.9903 20.0026C41.0556 16.5726 39.5892 14.8558 40.1002 13.2091C40.6111 11.5623 42.7653 11.0741 47.0702 10.1011L48.1832 9.84906C49.4064 9.57256 50.0172 9.43431 50.5089 9.06156C51.0007 8.68881 51.3139 8.12355 51.9439 6.99304L52.5179 5.96404Z" fill="#FFD900"/>
<path d="M92.5179 5.96404C94.7351 1.98801 95.8428 0 97.5 0C99.1572 0 100.265 1.98801 102.482 5.96404L103.056 6.99304C103.686 8.12355 104.001 8.68881 104.491 9.06156C104.981 9.43431 105.594 9.57256 106.819 9.84906L107.932 10.1011C112.236 11.0758 114.387 11.5623 114.9 13.2091C115.411 14.8541 113.944 16.5709 111.01 20.0026L110.25 20.8899C109.417 21.8646 108.999 22.3529 108.812 22.9549C108.624 23.5587 108.687 24.2097 108.813 25.5099L108.929 26.6947C109.372 31.2744 109.594 33.5635 108.253 34.5802C106.913 35.597 104.897 34.6695 100.869 32.8145L99.8239 32.335C98.6795 31.8065 98.1072 31.544 97.5 31.544C96.8928 31.544 96.3205 31.8065 95.1761 32.335L94.1331 32.8145C90.1029 34.6695 88.087 35.597 86.7483 34.582C85.406 33.5635 85.6283 31.2744 86.071 26.6947L86.1865 25.5117C86.3125 24.2097 86.3755 23.5587 86.1865 22.9566C86.001 22.3529 85.5828 21.8646 84.7498 20.8916L83.9903 20.0026C81.0556 16.5726 79.5892 14.8558 80.1002 13.2091C80.6111 11.5623 82.7653 11.0741 87.0702 10.1011L88.1832 9.84906C89.4064 9.57256 90.0172 9.43431 90.5089 9.06156C91.0006 8.68881 91.3139 8.12355 91.9439 6.99304L92.5179 5.96404Z" fill="#FFD900"/>
<path d="M132.518 5.96404C134.735 1.98801 135.843 0 137.5 0C139.157 0 140.265 1.98801 142.482 5.96404L143.056 6.99304C143.686 8.12355 144.001 8.68881 144.491 9.06156C144.981 9.43431 145.594 9.57256 146.819 9.84906L147.932 10.1011C152.236 11.0758 154.387 11.5623 154.9 13.2091C155.411 14.8541 153.944 16.5709 151.01 20.0026L150.25 20.8899C149.417 21.8646 148.999 22.3529 148.812 22.9549C148.624 23.5587 148.687 24.2097 148.813 25.5099L148.929 26.6947C149.372 31.2744 149.594 33.5635 148.253 34.5802C146.913 35.597 144.897 34.6695 140.869 32.8145L139.824 32.335C138.679 31.8065 138.107 31.544 137.5 31.544C136.893 31.544 136.321 31.8065 135.176 32.335L134.133 32.8145C130.103 34.6695 128.087 35.597 126.748 34.582C125.406 33.5635 125.628 31.2744 126.071 26.6947L126.187 25.5117C126.313 24.2097 126.376 23.5587 126.187 22.9566C126.001 22.3529 125.583 21.8646 124.75 20.8916L123.99 20.0026C121.056 16.5726 119.589 14.8558 120.1 13.2091C120.611 11.5623 122.765 11.0741 127.07 10.1011L128.183 9.84906C129.406 9.57256 130.017 9.43431 130.509 9.06156C131.001 8.68881 131.314 8.12355 131.944 6.99304L132.518 5.96404Z" fill="#FFD900"/>
<path d="M172.518 5.96404C174.735 1.98801 175.843 0 177.5 0C179.157 0 180.265 1.98801 182.482 5.96404L183.056 6.99304C183.686 8.12355 184.001 8.68881 184.491 9.06156C184.981 9.43431 185.594 9.57256 186.819 9.84906L187.932 10.1011C192.236 11.0758 194.387 11.5623 194.9 13.2091C195.411 14.8541 193.944 16.5709 191.01 20.0026L190.25 20.8899C189.417 21.8646 188.999 22.3529 188.812 22.9549C188.624 23.5587 188.687 24.2097 188.813 25.5099L188.929 26.6947C189.372 31.2744 189.594 33.5635 188.253 34.5802C186.913 35.597 184.897 34.6695 180.869 32.8145L179.824 32.335C178.679 31.8065 178.107 31.544 177.5 31.544C176.893 31.544 176.321 31.8065 175.176 32.335L174.133 32.8145C170.103 34.6695 168.087 35.597 166.748 34.582C165.406 33.5635 165.628 31.2744 166.071 26.6947L166.187 25.5117C166.312 24.2097 166.376 23.5587 166.187 22.9566C166.001 22.3529 165.583 21.8646 164.75 20.8916L163.99 20.0026C161.056 16.5726 159.589 14.8558 160.1 13.2091C160.611 11.5623 162.765 11.0741 167.07 10.1011L168.183 9.84906C169.406 9.57256 170.017 9.43431 170.509 9.06156C171.001 8.68881 171.314 8.12355 171.944 6.99304L172.518 5.96404Z" fill="#FFD900"/>
</svg>
