<svg width="53" height="50" viewBox="0 0 53 50" fill="none" xmlns="http://www.w3.org/2000/svg">
<path fill-rule="evenodd" clip-rule="evenodd" d="M27.2578 0.170786C27.0103 0.058235 26.7416 0 26.4698 0C26.1979 0 25.9292 0.058235 25.6817 0.170786L15.6961 4.71629L26.4621 9.61965L37.2358 4.71248L27.2578 0.170786ZM13.9068 19.7081V8.08164L24.5663 12.9355V25.784L15.0146 21.4402C14.6821 21.289 14.4001 21.0453 14.2023 20.7381C14.0045 20.431 13.8993 20.0734 13.8992 19.7081H13.9068ZM28.3732 45.2603V32.5451L38.4693 37.1439V49.9924L28.929 45.6487C28.7207 45.5539 28.5349 45.4224 28.3732 45.2603ZM42.2762 50V37.1439L52.9471 32.2862V43.9165C52.947 44.2818 52.8418 44.6394 52.644 44.9465C52.4462 45.2537 52.1642 45.4974 51.8317 45.6487L42.2762 50ZM24.5587 32.5451V45.2756C24.4003 45.4307 24.2161 45.5569 24.0143 45.6487L14.4588 50V37.1439L24.5587 32.5451ZM10.6519 37.1439V49.9924L1.11544 45.6487C0.782896 45.4974 0.500901 45.2537 0.303114 44.9465C0.105326 44.6394 0.000101156 44.2818 0 43.9165V32.2901L10.6595 37.1439H10.6519ZM28.3656 25.7916V12.9317L39.0365 8.07402V19.7081C39.0364 20.0734 38.9312 20.431 38.7334 20.7381C38.5356 21.0453 38.2536 21.289 37.9211 21.4402L28.3656 25.7916ZM39.5885 24.383C39.836 24.2705 40.1047 24.2122 40.3766 24.2122C40.6484 24.2122 40.9171 24.2705 41.1646 24.383L51.1388 28.9209L40.3651 33.8281L29.6105 28.9209L39.5923 24.3754L39.5885 24.383ZM11.7749 24.383C12.0224 24.2705 12.2911 24.2122 12.5629 24.2122C12.8348 24.2122 13.1035 24.2705 13.351 24.383L23.3252 28.9209L12.5553 33.8319L1.79308 28.9209L11.7749 24.383Z" fill="#98C1D9"/>
</svg>
