<svg width="69" height="66" viewBox="0 0 69 66" fill="none" xmlns="http://www.w3.org/2000/svg">
<path d="M20.6471 17.1176V10.0588C20.6471 8.18671 21.3908 6.39127 22.7145 5.06748C24.0383 3.7437 25.8338 3 27.7059 3H41.8235C43.6956 3 45.4911 3.7437 46.8149 5.06748C48.1387 6.39127 48.8824 8.18671 48.8824 10.0588V17.1176M34.7647 34.7647V34.8M3 38.2941C12.8526 43.2589 23.7319 45.845 34.7647 45.845C45.7975 45.845 56.6768 43.2589 66.5294 38.2941M3 24.1765C3 22.3044 3.7437 20.5089 5.06748 19.1851C6.39127 17.8613 8.18671 17.1176 10.0588 17.1176H59.4706C61.3427 17.1176 63.1381 17.8613 64.4619 19.1851C65.7857 20.5089 66.5294 22.3044 66.5294 24.1765V55.9412C66.5294 57.8133 65.7857 59.6087 64.4619 60.9325C63.1381 62.2563 61.3427 63 59.4706 63H10.0588C8.18671 63 6.39127 62.2563 5.06748 60.9325C3.7437 59.6087 3 57.8133 3 55.9412V24.1765Z" stroke="#98C1D9" stroke-width="4.16667" stroke-linecap="round" stroke-linejoin="round"/>
</svg>
