<svg width="49" height="50" viewBox="0 0 49 50" fill="none" xmlns="http://www.w3.org/2000/svg">
<path d="M24.3233 33.75C22.0027 33.75 19.7771 32.8281 18.1361 31.1872C16.4952 29.5462 15.5733 27.3206 15.5733 25C15.5733 22.6794 16.4952 20.4538 18.1361 18.8128C19.7771 17.1719 22.0027 16.25 24.3233 16.25C26.644 16.25 28.8696 17.1719 30.5105 18.8128C32.1515 20.4538 33.0733 22.6794 33.0733 25C33.0733 27.3206 32.1515 29.5462 30.5105 31.1872C28.8696 32.8281 26.644 33.75 24.3233 33.75ZM42.8983 27.425C42.9983 26.625 43.0733 25.825 43.0733 25C43.0733 24.175 42.9983 23.35 42.8983 22.5L48.1733 18.425C48.6483 18.05 48.7733 17.375 48.4733 16.825L43.4733 8.175C43.1733 7.625 42.4983 7.4 41.9483 7.625L35.7233 10.125C34.4233 9.15 33.0733 8.3 31.4983 7.675L30.5733 1.05C30.5225 0.755547 30.3692 0.488572 30.1404 0.296383C29.9116 0.104195 29.6221 -0.000799436 29.3233 4.58367e-06H19.3233C18.6983 4.58367e-06 18.1733 0.450005 18.0733 1.05L17.1483 7.675C15.5733 8.3 14.2233 9.15 12.9233 10.125L6.69833 7.625C6.14833 7.4 5.47333 7.625 5.17333 8.175L0.173329 16.825C-0.151671 17.375 -0.00167077 18.05 0.473329 18.425L5.74833 22.5C5.64833 23.35 5.57333 24.175 5.57333 25C5.57333 25.825 5.64833 26.625 5.74833 27.425L0.473329 31.575C-0.00167077 31.95 -0.151671 32.625 0.173329 33.175L5.17333 41.825C5.47333 42.375 6.14833 42.575 6.69833 42.375L12.9233 39.85C14.2233 40.85 15.5733 41.7 17.1483 42.325L18.0733 48.95C18.1733 49.55 18.6983 50 19.3233 50H29.3233C29.9483 50 30.4733 49.55 30.5733 48.95L31.4983 42.325C33.0733 41.675 34.4233 40.85 35.7233 39.85L41.9483 42.375C42.4983 42.575 43.1733 42.375 43.4733 41.825L48.4733 33.175C48.7733 32.625 48.6483 31.95 48.1733 31.575L42.8983 27.425Z" fill="#98C1D9"/>
</svg>
