<svg width="40" height="40" viewBox="0 0 40 40" fill="none" xmlns="http://www.w3.org/2000/svg">
<g clip-path="url(#clip0_827_71)">
<mask id="mask0_827_71" style="mask-type:luminance" maskUnits="userSpaceOnUse" x="0" y="0" width="40" height="40">
<path d="M0 0H40V40H0V0Z" fill="white"/>
<path fill-rule="evenodd" clip-rule="evenodd" d="M20.603 22.4061C20.2642 22.1859 19.9721 21.9011 19.7433 21.568C19.5145 21.2349 19.3536 20.86 19.2698 20.4647C19.1859 20.0694 19.1808 19.6615 19.2546 19.2642C19.3284 18.8669 19.4797 18.488 19.6999 18.1492L23.0553 12.9908C23.272 12.6443 23.5555 12.3444 23.8893 12.1087C24.2231 11.873 24.6005 11.7061 24.9995 11.6178C25.3985 11.5296 25.8111 11.5217 26.2132 11.5946C26.6152 11.6675 26.9988 11.8197 27.3414 12.0425C27.684 12.2652 27.9788 12.554 28.2086 12.8919C28.4383 13.2298 28.5985 13.6101 28.6797 14.0106C28.7609 14.4111 28.7616 14.8237 28.6816 15.2245C28.6016 15.6252 28.4426 16.006 28.2138 16.3446L24.86 21.5046C24.415 22.1886 23.7165 22.6679 22.9182 22.837C22.1199 23.0061 21.2871 22.8511 20.603 22.4061ZM16.8461 22.7169C16.3298 21.7461 16.083 20.6547 16.1315 19.5563C16.1799 18.4578 16.5218 17.3923 17.1215 16.4708L20.4753 11.3123C20.916 10.6348 21.4857 10.0507 22.1521 9.59335C22.8185 9.13603 23.5684 8.81444 24.3591 8.64693C25.1497 8.47943 25.9656 8.4693 26.7602 8.61712C27.5548 8.76494 28.3124 9.06781 28.9899 9.50845C29.6675 9.94908 30.2516 10.5188 30.7089 11.1852C31.1662 11.8516 31.4878 12.6015 31.6553 13.3922C31.8228 14.1828 31.8329 14.9987 31.6851 15.7933C31.5373 16.5879 31.2344 17.3455 30.7938 18.0231L27.4399 23.1815C26.8564 24.0796 26.0485 24.8098 25.0962 25.2999C24.144 25.7901 23.0803 26.0232 22.0103 25.9763C20.9403 25.9294 19.9011 25.604 18.9954 25.0324C18.0897 24.4607 17.3488 23.6626 16.8461 22.7169Z" fill="black"/>
<path fill-rule="evenodd" clip-rule="evenodd" d="M12.9907 28.4662C12.6519 28.246 12.3598 27.9612 12.131 27.6281C11.9022 27.295 11.7413 26.9201 11.6575 26.5248C11.5736 26.1295 11.5684 25.7215 11.6423 25.3242C11.7161 24.9269 11.8674 24.548 12.0876 24.2092L15.443 19.0508C15.6597 18.7043 15.9432 18.4045 16.277 18.1687C16.6108 17.933 16.9882 17.7661 17.3872 17.6779C17.7862 17.5896 18.1988 17.5817 18.6009 17.6546C19.0029 17.7275 19.3865 17.8798 19.7291 18.1025C20.0717 18.3253 20.3665 18.614 20.5962 18.9519C20.826 19.2898 20.9862 19.6701 21.0674 20.0706C21.1486 20.4711 21.1493 20.8838 21.0693 21.2845C20.9893 21.6852 20.8303 22.066 20.6015 22.4046L17.2476 27.5646C16.8027 28.2487 16.1042 28.7279 15.3059 28.897C14.5076 29.0661 13.6748 28.9111 12.9907 28.4662ZM9.2338 28.7769C8.7175 27.8061 8.47073 26.7148 8.51916 25.6163C8.56759 24.5178 8.90945 23.4524 9.50918 22.5308L12.863 17.3739C13.7527 16.0055 15.1495 15.0467 16.7462 14.7083C17.5368 14.5407 18.3526 14.5305 19.1472 14.6782C19.9417 14.8259 20.6994 15.1287 21.3769 15.5692C22.0544 16.0098 22.6385 16.5794 23.0959 17.2457C23.5532 17.912 23.8749 18.6618 24.0425 19.4524C24.21 20.243 24.2202 21.0589 24.0725 21.8534C23.9248 22.6479 23.622 23.4056 23.1815 24.0831L19.8276 29.2416C19.2441 30.1396 18.4362 30.8698 17.4839 31.36C16.5317 31.8501 15.4679 32.0833 14.398 32.0363C13.328 31.9894 12.2888 31.664 11.3831 31.0924C10.4774 30.5208 9.73652 29.7226 9.2338 28.7769Z" fill="black"/>
</mask>
<g mask="url(#mask0_827_71)">
<path d="M20 40C31.0457 40 40 31.0457 40 20C40 8.9543 31.0457 0 20 0C8.9543 0 0 8.9543 0 20C0 31.0457 8.9543 40 20 40Z" fill="#98C1D9"/>
</g>
</g>
<defs>
<clipPath id="clip0_827_71">
<rect width="40" height="40" fill="white"/>
</clipPath>
</defs>
</svg>
