<svg width="119" height="200" viewBox="0 0 119 200" fill="none" xmlns="http://www.w3.org/2000/svg">
<path d="M32.6441 53.9499C34.1719 53.9499 35.6372 54.5589 36.7175 55.6429C37.7979 56.7269 38.4048 58.1972 38.4048 59.7302C38.4048 61.2633 37.7979 62.7335 36.7175 63.8176C35.6372 64.9016 34.1719 65.5106 32.6441 65.5106C31.1162 65.5106 29.651 64.9016 28.5706 63.8176C27.4903 62.7335 26.8834 61.2633 26.8834 59.7302C26.8834 58.1972 27.4903 56.7269 28.5706 55.6429C29.651 54.5589 31.1162 53.9499 32.6441 53.9499ZM59.5274 53.9499C61.0553 53.9499 62.5205 54.5589 63.6009 55.6429C64.6812 56.7269 65.2882 58.1972 65.2882 59.7302C65.2882 61.2633 64.6812 62.7335 63.6009 63.8176C62.5205 64.9016 61.0553 65.5106 59.5274 65.5106C57.9996 65.5106 56.5343 64.9016 55.454 63.8176C54.3737 62.7335 53.7667 61.2633 53.7667 59.7302C53.7667 58.1972 54.3737 56.7269 55.454 55.6429C56.5343 54.5589 57.9996 53.9499 59.5274 53.9499ZM5.76072 53.9499C7.28856 53.9499 8.75382 54.5589 9.83417 55.6429C10.9145 56.7269 11.5214 58.1972 11.5214 59.7302C11.5214 61.2633 10.9145 62.7335 9.83417 63.8176C8.75382 64.9016 7.28856 65.5106 5.76072 65.5106C4.23289 65.5106 2.76763 64.9016 1.68728 63.8176C0.606936 62.7335 5.02295e-06 61.2633 5.02295e-06 59.7302C5.02295e-06 58.1972 0.606936 56.7269 1.68728 55.6429C2.76763 54.5589 4.23289 53.9499 5.76072 53.9499ZM32.6441 26.9749C34.1719 26.9749 35.6372 27.5839 36.7175 28.668C37.7979 29.752 38.4048 31.2222 38.4048 32.7553C38.4048 34.2883 37.7979 35.7586 36.7175 36.8426C35.6372 37.9266 34.1719 38.5356 32.6441 38.5356C31.1162 38.5356 29.651 37.9266 28.5706 36.8426C27.4903 35.7586 26.8834 34.2883 26.8834 32.7553C26.8834 31.2222 27.4903 29.752 28.5706 28.668C29.651 27.5839 31.1162 26.9749 32.6441 26.9749ZM59.5274 26.9749C61.0553 26.9749 62.5205 27.5839 63.6009 28.668C64.6812 29.752 65.2882 31.2222 65.2882 32.7553C65.2882 34.2883 64.6812 35.7586 63.6009 36.8426C62.5205 37.9266 61.0553 38.5356 59.5274 38.5356C57.9996 38.5356 56.5343 37.9266 55.454 36.8426C54.3737 35.7586 53.7667 34.2883 53.7667 32.7553C53.7667 31.2222 54.3737 29.752 55.454 28.668C56.5343 27.5839 57.9996 26.9749 59.5274 26.9749ZM5.76072 26.9749C7.28856 26.9749 8.75382 27.5839 9.83417 28.668C10.9145 29.752 11.5214 31.2222 11.5214 32.7553C11.5214 34.2883 10.9145 35.7586 9.83417 36.8426C8.75382 37.9266 7.28856 38.5356 5.76072 38.5356C4.23289 38.5356 2.76763 37.9266 1.68728 36.8426C0.606936 35.7586 5.02295e-06 34.2883 5.02295e-06 32.7553C5.02295e-06 31.2222 0.606936 29.752 1.68728 28.668C2.76763 27.5839 4.23289 26.9749 5.76072 26.9749ZM32.6441 0C34.1719 0 35.6372 0.608999 36.7175 1.69302C37.7979 2.77705 38.4048 4.2473 38.4048 5.78035C38.4048 7.31339 37.7979 8.78364 36.7175 9.86767C35.6372 10.9517 34.1719 11.5607 32.6441 11.5607C31.1162 11.5607 29.651 10.9517 28.5706 9.86767C27.4903 8.78364 26.8834 7.31339 26.8834 5.78035C26.8834 4.2473 27.4903 2.77705 28.5706 1.69302C29.651 0.608999 31.1162 0 32.6441 0ZM59.5274 0C61.0553 0 62.5205 0.608999 63.6009 1.69302C64.6812 2.77705 65.2882 4.2473 65.2882 5.78035C65.2882 7.31339 64.6812 8.78364 63.6009 9.86767C62.5205 10.9517 61.0553 11.5607 59.5274 11.5607C57.9996 11.5607 56.5343 10.9517 55.454 9.86767C54.3737 8.78364 53.7667 7.31339 53.7667 5.78035C53.7667 4.2473 54.3737 2.77705 55.454 1.69302C56.5343 0.608999 57.9996 0 59.5274 0ZM5.76072 0C7.28856 0 8.75382 0.608999 9.83417 1.69302C10.9145 2.77705 11.5214 4.2473 11.5214 5.78035C11.5214 7.31339 10.9145 8.78364 9.83417 9.86767C8.75382 10.9517 7.28856 11.5607 5.76072 11.5607C4.23289 11.5607 2.76763 10.9517 1.68728 9.86767C0.606936 8.78364 5.02295e-06 7.31339 5.02295e-06 5.78035C5.02295e-06 4.2473 0.606936 2.77705 1.68728 1.69302C2.76763 0.608999 4.23289 0 5.76072 0Z" fill="#98C1D9"/>
<path d="M86.3559 53.9499C87.8838 53.9499 89.349 54.5589 90.4294 55.6429C91.5097 56.7269 92.1166 58.1972 92.1166 59.7302C92.1166 61.2633 91.5097 62.7335 90.4294 63.8176C89.349 64.9016 87.8838 65.5106 86.3559 65.5106C84.8281 65.5106 83.3628 64.9016 82.2825 63.8176C81.2021 62.7335 80.5952 61.2633 80.5952 59.7302C80.5952 58.1972 81.2021 56.7269 82.2825 55.6429C83.3628 54.5589 84.8281 53.9499 86.3559 53.9499ZM113.239 53.9499C114.767 53.9499 116.232 54.5589 117.313 55.6429C118.393 56.7269 119 58.1972 119 59.7302C119 61.2633 118.393 62.7335 117.313 63.8176C116.232 64.9016 114.767 65.5106 113.239 65.5106C111.711 65.5106 110.246 64.9016 109.166 63.8176C108.086 62.7335 107.479 61.2633 107.479 59.7302C107.479 58.1972 108.086 56.7269 109.166 55.6429C110.246 54.5589 111.711 53.9499 113.239 53.9499ZM59.4726 53.9499C61.0004 53.9499 62.4657 54.5589 63.546 55.6429C64.6264 56.7269 65.2333 58.1972 65.2333 59.7302C65.2333 61.2633 64.6264 62.7335 63.546 63.8176C62.4657 64.9016 61.0004 65.5106 59.4726 65.5106C57.9447 65.5106 56.4795 64.9016 55.3991 63.8176C54.3188 62.7335 53.7119 61.2633 53.7119 59.7302C53.7119 58.1972 54.3188 56.7269 55.3991 55.6429C56.4795 54.5589 57.9447 53.9499 59.4726 53.9499ZM86.3559 26.9749C87.8838 26.9749 89.349 27.5839 90.4294 28.668C91.5097 29.752 92.1166 31.2222 92.1166 32.7553C92.1166 34.2883 91.5097 35.7586 90.4294 36.8426C89.349 37.9266 87.8838 38.5356 86.3559 38.5356C84.8281 38.5356 83.3628 37.9266 82.2825 36.8426C81.2021 35.7586 80.5952 34.2883 80.5952 32.7553C80.5952 31.2222 81.2021 29.752 82.2825 28.668C83.3628 27.5839 84.8281 26.9749 86.3559 26.9749ZM113.239 26.9749C114.767 26.9749 116.232 27.5839 117.313 28.668C118.393 29.752 119 31.2222 119 32.7553C119 34.2883 118.393 35.7586 117.313 36.8426C116.232 37.9266 114.767 38.5356 113.239 38.5356C111.711 38.5356 110.246 37.9266 109.166 36.8426C108.086 35.7586 107.479 34.2883 107.479 32.7553C107.479 31.2222 108.086 29.752 109.166 28.668C110.246 27.5839 111.711 26.9749 113.239 26.9749ZM59.4726 26.9749C61.0004 26.9749 62.4657 27.5839 63.546 28.668C64.6264 29.752 65.2333 31.2222 65.2333 32.7553C65.2333 34.2883 64.6264 35.7586 63.546 36.8426C62.4657 37.9266 61.0004 38.5356 59.4726 38.5356C57.9447 38.5356 56.4795 37.9266 55.3991 36.8426C54.3188 35.7586 53.7119 34.2883 53.7119 32.7553C53.7119 31.2222 54.3188 29.752 55.3991 28.668C56.4795 27.5839 57.9447 26.9749 59.4726 26.9749ZM86.3559 0C87.8838 0 89.349 0.608999 90.4294 1.69302C91.5097 2.77705 92.1166 4.2473 92.1166 5.78035C92.1166 7.31339 91.5097 8.78364 90.4294 9.86767C89.349 10.9517 87.8838 11.5607 86.3559 11.5607C84.8281 11.5607 83.3628 10.9517 82.2825 9.86767C81.2021 8.78364 80.5952 7.31339 80.5952 5.78035C80.5952 4.2473 81.2021 2.77705 82.2825 1.69302C83.3628 0.608999 84.8281 0 86.3559 0ZM113.239 0C114.767 0 116.232 0.608999 117.313 1.69302C118.393 2.77705 119 4.2473 119 5.78035C119 7.31339 118.393 8.78364 117.313 9.86767C116.232 10.9517 114.767 11.5607 113.239 11.5607C111.711 11.5607 110.246 10.9517 109.166 9.86767C108.086 8.78364 107.479 7.31339 107.479 5.78035C107.479 4.2473 108.086 2.77705 109.166 1.69302C110.246 0.608999 111.711 0 113.239 0ZM59.4726 0C61.0004 0 62.4657 0.608999 63.546 1.69302C64.6264 2.77705 65.2333 4.2473 65.2333 5.78035C65.2333 7.31339 64.6264 8.78364 63.546 9.86767C62.4657 10.9517 61.0004 11.5607 59.4726 11.5607C57.9447 11.5607 56.4795 10.9517 55.3991 9.86767C54.3188 8.78364 53.7119 7.31339 53.7119 5.78035C53.7119 4.2473 54.3188 2.77705 55.3991 1.69302C56.4795 0.608999 57.9447 0 59.4726 0Z" fill="#98C1D9"/>
<path d="M32.6441 107.845C34.1719 107.845 35.6372 108.454 36.7175 109.538C37.7979 110.622 38.4048 112.092 38.4048 113.625C38.4048 115.158 37.7979 116.628 36.7175 117.712C35.6372 118.796 34.1719 119.405 32.6441 119.405C31.1162 119.405 29.651 118.796 28.5706 117.712C27.4903 116.628 26.8834 115.158 26.8834 113.625C26.8834 112.092 27.4903 110.622 28.5706 109.538C29.651 108.454 31.1162 107.845 32.6441 107.845ZM59.5274 107.845C61.0553 107.845 62.5205 108.454 63.6009 109.538C64.6812 110.622 65.2882 112.092 65.2882 113.625C65.2882 115.158 64.6812 116.628 63.6009 117.712C62.5205 118.796 61.0553 119.405 59.5274 119.405C57.9996 119.405 56.5343 118.796 55.454 117.712C54.3736 116.628 53.7667 115.158 53.7667 113.625C53.7667 112.092 54.3736 110.622 55.454 109.538C56.5343 108.454 57.9996 107.845 59.5274 107.845ZM5.76072 107.845C7.28856 107.845 8.75382 108.454 9.83416 109.538C10.9145 110.622 11.5214 112.092 11.5214 113.625C11.5214 115.158 10.9145 116.628 9.83416 117.712C8.75382 118.796 7.28856 119.405 5.76072 119.405C4.23288 119.405 2.76762 118.796 1.68728 117.712C0.606931 116.628 0 115.158 0 113.625C0 112.092 0.606931 110.622 1.68728 109.538C2.76762 108.454 4.23288 107.845 5.76072 107.845ZM32.6441 80.8698C34.1719 80.8698 35.6372 81.4788 36.7175 82.5628C37.7979 83.6469 38.4048 85.1171 38.4048 86.6502C38.4048 88.1832 37.7979 89.6535 36.7175 90.7375C35.6372 91.8215 34.1719 92.4305 32.6441 92.4305C31.1162 92.4305 29.651 91.8215 28.5706 90.7375C27.4903 89.6535 26.8834 88.1832 26.8834 86.6502C26.8834 85.1171 27.4903 83.6469 28.5706 82.5628C29.651 81.4788 31.1162 80.8698 32.6441 80.8698ZM59.5274 80.8698C61.0553 80.8698 62.5205 81.4788 63.6009 82.5628C64.6812 83.6469 65.2882 85.1171 65.2882 86.6502C65.2882 88.1832 64.6812 89.6535 63.6009 90.7375C62.5205 91.8215 61.0553 92.4305 59.5274 92.4305C57.9996 92.4305 56.5343 91.8215 55.454 90.7375C54.3736 89.6535 53.7667 88.1832 53.7667 86.6502C53.7667 85.1171 54.3736 83.6469 55.454 82.5628C56.5343 81.4788 57.9996 80.8698 59.5274 80.8698ZM5.76072 80.8698C7.28856 80.8698 8.75382 81.4788 9.83416 82.5628C10.9145 83.6469 11.5214 85.1171 11.5214 86.6502C11.5214 88.1832 10.9145 89.6535 9.83416 90.7375C8.75382 91.8215 7.28856 92.4305 5.76072 92.4305C4.23288 92.4305 2.76762 91.8215 1.68728 90.7375C0.606931 89.6535 0 88.1832 0 86.6502C0 85.1171 0.606931 83.6469 1.68728 82.5628C2.76762 81.4788 4.23288 80.8698 5.76072 80.8698ZM32.6441 53.8949C34.1719 53.8949 35.6372 54.5039 36.7175 55.5879C37.7979 56.6719 38.4048 58.1422 38.4048 59.6752C38.4048 61.2083 37.7979 62.6785 36.7175 63.7625C35.6372 64.8466 34.1719 65.4556 32.6441 65.4556C31.1162 65.4556 29.651 64.8466 28.5706 63.7625C27.4903 62.6785 26.8834 61.2083 26.8834 59.6752C26.8834 58.1422 27.4903 56.6719 28.5706 55.5879C29.651 54.5039 31.1162 53.8949 32.6441 53.8949ZM59.5274 53.8949C61.0553 53.8949 62.5205 54.5039 63.6009 55.5879C64.6812 56.6719 65.2882 58.1422 65.2882 59.6752C65.2882 61.2083 64.6812 62.6785 63.6009 63.7625C62.5205 64.8466 61.0553 65.4556 59.5274 65.4556C57.9996 65.4556 56.5343 64.8466 55.454 63.7625C54.3736 62.6785 53.7667 61.2083 53.7667 59.6752C53.7667 58.1422 54.3736 56.6719 55.454 55.5879C56.5343 54.5039 57.9996 53.8949 59.5274 53.8949ZM5.76072 53.8949C7.28856 53.8949 8.75382 54.5039 9.83416 55.5879C10.9145 56.6719 11.5214 58.1422 11.5214 59.6752C11.5214 61.2083 10.9145 62.6785 9.83416 63.7625C8.75382 64.8466 7.28856 65.4556 5.76072 65.4556C4.23288 65.4556 2.76762 64.8466 1.68728 63.7625C0.606931 62.6785 0 61.2083 0 59.6752C0 58.1422 0.606931 56.6719 1.68728 55.5879C2.76762 54.5039 4.23288 53.8949 5.76072 53.8949Z" fill="#98C1D9"/>
<path d="M86.3559 107.845C87.8838 107.845 89.349 108.454 90.4294 109.538C91.5097 110.622 92.1166 112.092 92.1166 113.625C92.1166 115.158 91.5097 116.628 90.4294 117.712C89.349 118.796 87.8838 119.405 86.3559 119.405C84.8281 119.405 83.3628 118.796 82.2825 117.712C81.2021 116.628 80.5952 115.158 80.5952 113.625C80.5952 112.092 81.2021 110.622 82.2825 109.538C83.3628 108.454 84.8281 107.845 86.3559 107.845ZM113.239 107.845C114.767 107.845 116.232 108.454 117.313 109.538C118.393 110.622 119 112.092 119 113.625C119 115.158 118.393 116.628 117.313 117.712C116.232 118.796 114.767 119.405 113.239 119.405C111.711 119.405 110.246 118.796 109.166 117.712C108.086 116.628 107.479 115.158 107.479 113.625C107.479 112.092 108.086 110.622 109.166 109.538C110.246 108.454 111.711 107.845 113.239 107.845ZM59.4726 107.845C61.0004 107.845 62.4657 108.454 63.546 109.538C64.6264 110.622 65.2333 112.092 65.2333 113.625C65.2333 115.158 64.6264 116.628 63.546 117.712C62.4657 118.796 61.0004 119.405 59.4726 119.405C57.9447 119.405 56.4795 118.796 55.3991 117.712C54.3188 116.628 53.7119 115.158 53.7119 113.625C53.7119 112.092 54.3188 110.622 55.3991 109.538C56.4795 108.454 57.9447 107.845 59.4726 107.845ZM86.3559 80.8698C87.8838 80.8698 89.349 81.4788 90.4294 82.5628C91.5097 83.6469 92.1166 85.1171 92.1166 86.6502C92.1166 88.1832 91.5097 89.6535 90.4294 90.7375C89.349 91.8215 87.8838 92.4305 86.3559 92.4305C84.8281 92.4305 83.3628 91.8215 82.2825 90.7375C81.2021 89.6535 80.5952 88.1832 80.5952 86.6502C80.5952 85.1171 81.2021 83.6469 82.2825 82.5628C83.3628 81.4788 84.8281 80.8698 86.3559 80.8698ZM113.239 80.8698C114.767 80.8698 116.232 81.4788 117.313 82.5628C118.393 83.6469 119 85.1171 119 86.6502C119 88.1832 118.393 89.6535 117.313 90.7375C116.232 91.8215 114.767 92.4305 113.239 92.4305C111.711 92.4305 110.246 91.8215 109.166 90.7375C108.086 89.6535 107.479 88.1832 107.479 86.6502C107.479 85.1171 108.086 83.6469 109.166 82.5628C110.246 81.4788 111.711 80.8698 113.239 80.8698ZM59.4726 80.8698C61.0004 80.8698 62.4657 81.4788 63.546 82.5628C64.6264 83.6469 65.2333 85.1171 65.2333 86.6502C65.2333 88.1832 64.6264 89.6535 63.546 90.7375C62.4657 91.8215 61.0004 92.4305 59.4726 92.4305C57.9447 92.4305 56.4795 91.8215 55.3991 90.7375C54.3188 89.6535 53.7119 88.1832 53.7119 86.6502C53.7119 85.1171 54.3188 83.6469 55.3991 82.5628C56.4795 81.4788 57.9447 80.8698 59.4726 80.8698ZM86.3559 53.8949C87.8838 53.8949 89.349 54.5039 90.4294 55.5879C91.5097 56.6719 92.1166 58.1422 92.1166 59.6752C92.1166 61.2083 91.5097 62.6785 90.4294 63.7625C89.349 64.8466 87.8838 65.4556 86.3559 65.4556C84.8281 65.4556 83.3628 64.8466 82.2825 63.7625C81.2021 62.6785 80.5952 61.2083 80.5952 59.6752C80.5952 58.1422 81.2021 56.6719 82.2825 55.5879C83.3628 54.5039 84.8281 53.8949 86.3559 53.8949ZM113.239 53.8949C114.767 53.8949 116.232 54.5039 117.313 55.5879C118.393 56.6719 119 58.1422 119 59.6752C119 61.2083 118.393 62.6785 117.313 63.7625C116.232 64.8466 114.767 65.4556 113.239 65.4556C111.711 65.4556 110.246 64.8466 109.166 63.7625C108.086 62.6785 107.479 61.2083 107.479 59.6752C107.479 58.1422 108.086 56.6719 109.166 55.5879C110.246 54.5039 111.711 53.8949 113.239 53.8949ZM59.4726 53.8949C61.0004 53.8949 62.4657 54.5039 63.546 55.5879C64.6264 56.6719 65.2333 58.1422 65.2333 59.6752C65.2333 61.2083 64.6264 62.6785 63.546 63.7625C62.4657 64.8466 61.0004 65.4556 59.4726 65.4556C57.9447 65.4556 56.4795 64.8466 55.3991 63.7625C54.3188 62.6785 53.7119 61.2083 53.7119 59.6752C53.7119 58.1422 54.3188 56.6719 55.3991 55.5879C56.4795 54.5039 57.9447 53.8949 59.4726 53.8949Z" fill="#98C1D9"/>
<path d="M32.6441 134.544C34.1719 134.544 35.6372 135.153 36.7175 136.237C37.7979 137.321 38.4048 138.792 38.4048 140.325C38.4048 141.858 37.7979 143.328 36.7175 144.412C35.6372 145.496 34.1719 146.105 32.6441 146.105C31.1162 146.105 29.651 145.496 28.5706 144.412C27.4903 143.328 26.8834 141.858 26.8834 140.325C26.8834 138.792 27.4903 137.321 28.5706 136.237C29.651 135.153 31.1162 134.544 32.6441 134.544ZM59.5274 134.544C61.0553 134.544 62.5205 135.153 63.6009 136.237C64.6812 137.321 65.2882 138.792 65.2882 140.325C65.2882 141.858 64.6812 143.328 63.6009 144.412C62.5205 145.496 61.0553 146.105 59.5274 146.105C57.9996 146.105 56.5343 145.496 55.454 144.412C54.3737 143.328 53.7667 141.858 53.7667 140.325C53.7667 138.792 54.3737 137.321 55.454 136.237C56.5343 135.153 57.9996 134.544 59.5274 134.544ZM5.76072 134.544C7.28856 134.544 8.75382 135.153 9.83417 136.237C10.9145 137.321 11.5214 138.792 11.5214 140.325C11.5214 141.858 10.9145 143.328 9.83417 144.412C8.75382 145.496 7.28856 146.105 5.76072 146.105C4.23289 146.105 2.76763 145.496 1.68728 144.412C0.606936 143.328 5.02295e-06 141.858 5.02295e-06 140.325C5.02295e-06 138.792 0.606936 137.321 1.68728 136.237C2.76763 135.153 4.23289 134.544 5.76072 134.544ZM32.6441 107.569C34.1719 107.569 35.6372 108.178 36.7175 109.263C37.7979 110.347 38.4048 111.817 38.4048 113.35C38.4048 114.883 37.7979 116.353 36.7175 117.437C35.6372 118.521 34.1719 119.13 32.6441 119.13C31.1162 119.13 29.651 118.521 28.5706 117.437C27.4903 116.353 26.8834 114.883 26.8834 113.35C26.8834 111.817 27.4903 110.347 28.5706 109.263C29.651 108.178 31.1162 107.569 32.6441 107.569ZM59.5274 107.569C61.0553 107.569 62.5205 108.178 63.6009 109.263C64.6812 110.347 65.2882 111.817 65.2882 113.35C65.2882 114.883 64.6812 116.353 63.6009 117.437C62.5205 118.521 61.0553 119.13 59.5274 119.13C57.9996 119.13 56.5343 118.521 55.454 117.437C54.3737 116.353 53.7667 114.883 53.7667 113.35C53.7667 111.817 54.3737 110.347 55.454 109.263C56.5343 108.178 57.9996 107.569 59.5274 107.569ZM5.76072 107.569C7.28856 107.569 8.75382 108.178 9.83417 109.263C10.9145 110.347 11.5214 111.817 11.5214 113.35C11.5214 114.883 10.9145 116.353 9.83417 117.437C8.75382 118.521 7.28856 119.13 5.76072 119.13C4.23289 119.13 2.76763 118.521 1.68728 117.437C0.606936 116.353 5.02295e-06 114.883 5.02295e-06 113.35C5.02295e-06 111.817 0.606936 110.347 1.68728 109.263C2.76763 108.178 4.23289 107.569 5.76072 107.569ZM32.6441 80.5945C34.1719 80.5945 35.6372 81.2035 36.7175 82.2876C37.7979 83.3716 38.4048 84.8418 38.4048 86.3749C38.4048 87.9079 37.7979 89.3782 36.7175 90.4622C35.6372 91.5462 34.1719 92.1552 32.6441 92.1552C31.1162 92.1552 29.651 91.5462 28.5706 90.4622C27.4903 89.3782 26.8834 87.9079 26.8834 86.3749C26.8834 84.8418 27.4903 83.3716 28.5706 82.2876C29.651 81.2035 31.1162 80.5945 32.6441 80.5945ZM59.5274 80.5945C61.0553 80.5945 62.5205 81.2035 63.6009 82.2876C64.6812 83.3716 65.2882 84.8418 65.2882 86.3749C65.2882 87.9079 64.6812 89.3782 63.6009 90.4622C62.5205 91.5462 61.0553 92.1552 59.5274 92.1552C57.9996 92.1552 56.5343 91.5462 55.454 90.4622C54.3737 89.3782 53.7667 87.9079 53.7667 86.3749C53.7667 84.8418 54.3737 83.3716 55.454 82.2876C56.5343 81.2035 57.9996 80.5945 59.5274 80.5945ZM5.76072 80.5945C7.28856 80.5945 8.75382 81.2035 9.83417 82.2876C10.9145 83.3716 11.5214 84.8418 11.5214 86.3749C11.5214 87.9079 10.9145 89.3782 9.83417 90.4622C8.75382 91.5462 7.28856 92.1552 5.76072 92.1552C4.23289 92.1552 2.76763 91.5462 1.68728 90.4622C0.606936 89.3782 5.02295e-06 87.9079 5.02295e-06 86.3749C5.02295e-06 84.8418 0.606936 83.3716 1.68728 82.2876C2.76763 81.2035 4.23289 80.5945 5.76072 80.5945Z" fill="#98C1D9"/>
<path d="M86.3559 134.544C87.8838 134.544 89.349 135.153 90.4294 136.237C91.5097 137.321 92.1166 138.792 92.1166 140.325C92.1166 141.858 91.5097 143.328 90.4294 144.412C89.349 145.496 87.8838 146.105 86.3559 146.105C84.8281 146.105 83.3628 145.496 82.2825 144.412C81.2021 143.328 80.5952 141.858 80.5952 140.325C80.5952 138.792 81.2021 137.321 82.2825 136.237C83.3628 135.153 84.8281 134.544 86.3559 134.544ZM113.239 134.544C114.767 134.544 116.232 135.153 117.313 136.237C118.393 137.321 119 138.792 119 140.325C119 141.858 118.393 143.328 117.313 144.412C116.232 145.496 114.767 146.105 113.239 146.105C111.711 146.105 110.246 145.496 109.166 144.412C108.086 143.328 107.479 141.858 107.479 140.325C107.479 138.792 108.086 137.321 109.166 136.237C110.246 135.153 111.711 134.544 113.239 134.544ZM59.4726 134.544C61.0004 134.544 62.4657 135.153 63.546 136.237C64.6264 137.321 65.2333 138.792 65.2333 140.325C65.2333 141.858 64.6264 143.328 63.546 144.412C62.4657 145.496 61.0004 146.105 59.4726 146.105C57.9447 146.105 56.4795 145.496 55.3991 144.412C54.3188 143.328 53.7119 141.858 53.7119 140.325C53.7119 138.792 54.3188 137.321 55.3991 136.237C56.4795 135.153 57.9447 134.544 59.4726 134.544ZM86.3559 107.569C87.8838 107.569 89.349 108.178 90.4294 109.263C91.5097 110.347 92.1166 111.817 92.1166 113.35C92.1166 114.883 91.5097 116.353 90.4294 117.437C89.349 118.521 87.8838 119.13 86.3559 119.13C84.8281 119.13 83.3628 118.521 82.2825 117.437C81.2021 116.353 80.5952 114.883 80.5952 113.35C80.5952 111.817 81.2021 110.347 82.2825 109.263C83.3628 108.178 84.8281 107.569 86.3559 107.569ZM113.239 107.569C114.767 107.569 116.232 108.178 117.313 109.263C118.393 110.347 119 111.817 119 113.35C119 114.883 118.393 116.353 117.313 117.437C116.232 118.521 114.767 119.13 113.239 119.13C111.711 119.13 110.246 118.521 109.166 117.437C108.086 116.353 107.479 114.883 107.479 113.35C107.479 111.817 108.086 110.347 109.166 109.263C110.246 108.178 111.711 107.569 113.239 107.569ZM59.4726 107.569C61.0004 107.569 62.4657 108.178 63.546 109.263C64.6264 110.347 65.2333 111.817 65.2333 113.35C65.2333 114.883 64.6264 116.353 63.546 117.437C62.4657 118.521 61.0004 119.13 59.4726 119.13C57.9447 119.13 56.4795 118.521 55.3991 117.437C54.3188 116.353 53.7119 114.883 53.7119 113.35C53.7119 111.817 54.3188 110.347 55.3991 109.263C56.4795 108.178 57.9447 107.569 59.4726 107.569ZM86.3559 80.5945C87.8838 80.5945 89.349 81.2035 90.4294 82.2876C91.5097 83.3716 92.1166 84.8418 92.1166 86.3749C92.1166 87.9079 91.5097 89.3782 90.4294 90.4622C89.349 91.5462 87.8838 92.1552 86.3559 92.1552C84.8281 92.1552 83.3628 91.5462 82.2825 90.4622C81.2021 89.3782 80.5952 87.9079 80.5952 86.3749C80.5952 84.8418 81.2021 83.3716 82.2825 82.2876C83.3628 81.2035 84.8281 80.5945 86.3559 80.5945ZM113.239 80.5945C114.767 80.5945 116.232 81.2035 117.313 82.2876C118.393 83.3716 119 84.8418 119 86.3749C119 87.9079 118.393 89.3782 117.313 90.4622C116.232 91.5462 114.767 92.1552 113.239 92.1552C111.711 92.1552 110.246 91.5462 109.166 90.4622C108.086 89.3782 107.479 87.9079 107.479 86.3749C107.479 84.8418 108.086 83.3716 109.166 82.2876C110.246 81.2035 111.711 80.5945 113.239 80.5945ZM59.4726 80.5945C61.0004 80.5945 62.4657 81.2035 63.546 82.2876C64.6264 83.3716 65.2333 84.8418 65.2333 86.3749C65.2333 87.9079 64.6264 89.3782 63.546 90.4622C62.4657 91.5462 61.0004 92.1552 59.4726 92.1552C57.9447 92.1552 56.4795 91.5462 55.3991 90.4622C54.3188 89.3782 53.7119 87.9079 53.7119 86.3749C53.7119 84.8418 54.3188 83.3716 55.3991 82.2876C56.4795 81.2035 57.9447 80.5945 59.4726 80.5945Z" fill="#98C1D9"/>
<path d="M32.6441 188.439C34.1719 188.439 35.6372 189.048 36.7175 190.132C37.7979 191.216 38.4048 192.687 38.4048 194.22C38.4048 195.753 37.7979 197.223 36.7175 198.307C35.6372 199.391 34.1719 200 32.6441 200C31.1162 200 29.651 199.391 28.5706 198.307C27.4903 197.223 26.8834 195.753 26.8834 194.22C26.8834 192.687 27.4903 191.216 28.5706 190.132C29.651 189.048 31.1162 188.439 32.6441 188.439ZM59.5274 188.439C61.0553 188.439 62.5205 189.048 63.6009 190.132C64.6812 191.216 65.2882 192.687 65.2882 194.22C65.2882 195.753 64.6812 197.223 63.6009 198.307C62.5205 199.391 61.0553 200 59.5274 200C57.9996 200 56.5343 199.391 55.454 198.307C54.3736 197.223 53.7667 195.753 53.7667 194.22C53.7667 192.687 54.3736 191.216 55.454 190.132C56.5343 189.048 57.9996 188.439 59.5274 188.439ZM5.76072 188.439C7.28856 188.439 8.75382 189.048 9.83416 190.132C10.9145 191.216 11.5214 192.687 11.5214 194.22C11.5214 195.753 10.9145 197.223 9.83416 198.307C8.75382 199.391 7.28856 200 5.76072 200C4.23288 200 2.76762 199.391 1.68728 198.307C0.606931 197.223 0 195.753 0 194.22C0 192.687 0.606931 191.216 1.68728 190.132C2.76762 189.048 4.23288 188.439 5.76072 188.439ZM32.6441 161.464C34.1719 161.464 35.6372 162.073 36.7175 163.157C37.7979 164.241 38.4048 165.712 38.4048 167.245C38.4048 168.778 37.7979 170.248 36.7175 171.332C35.6372 172.416 34.1719 173.025 32.6441 173.025C31.1162 173.025 29.651 172.416 28.5706 171.332C27.4903 170.248 26.8834 168.778 26.8834 167.245C26.8834 165.712 27.4903 164.241 28.5706 163.157C29.651 162.073 31.1162 161.464 32.6441 161.464ZM59.5274 161.464C61.0553 161.464 62.5205 162.073 63.6009 163.157C64.6812 164.241 65.2882 165.712 65.2882 167.245C65.2882 168.778 64.6812 170.248 63.6009 171.332C62.5205 172.416 61.0553 173.025 59.5274 173.025C57.9996 173.025 56.5343 172.416 55.454 171.332C54.3736 170.248 53.7667 168.778 53.7667 167.245C53.7667 165.712 54.3736 164.241 55.454 163.157C56.5343 162.073 57.9996 161.464 59.5274 161.464ZM5.76072 161.464C7.28856 161.464 8.75382 162.073 9.83416 163.157C10.9145 164.241 11.5214 165.712 11.5214 167.245C11.5214 168.778 10.9145 170.248 9.83416 171.332C8.75382 172.416 7.28856 173.025 5.76072 173.025C4.23288 173.025 2.76762 172.416 1.68728 171.332C0.606931 170.248 0 168.778 0 167.245C0 165.712 0.606931 164.241 1.68728 163.157C2.76762 162.073 4.23288 161.464 5.76072 161.464ZM32.6441 134.489C34.1719 134.489 35.6372 135.098 36.7175 136.182C37.7979 137.266 38.4048 138.737 38.4048 140.27C38.4048 141.803 37.7979 143.273 36.7175 144.357C35.6372 145.441 34.1719 146.05 32.6441 146.05C31.1162 146.05 29.651 145.441 28.5706 144.357C27.4903 143.273 26.8834 141.803 26.8834 140.27C26.8834 138.737 27.4903 137.266 28.5706 136.182C29.651 135.098 31.1162 134.489 32.6441 134.489ZM59.5274 134.489C61.0553 134.489 62.5205 135.098 63.6009 136.182C64.6812 137.266 65.2882 138.737 65.2882 140.27C65.2882 141.803 64.6812 143.273 63.6009 144.357C62.5205 145.441 61.0553 146.05 59.5274 146.05C57.9996 146.05 56.5343 145.441 55.454 144.357C54.3736 143.273 53.7667 141.803 53.7667 140.27C53.7667 138.737 54.3736 137.266 55.454 136.182C56.5343 135.098 57.9996 134.489 59.5274 134.489ZM5.76072 134.489C7.28856 134.489 8.75382 135.098 9.83416 136.182C10.9145 137.266 11.5214 138.737 11.5214 140.27C11.5214 141.803 10.9145 143.273 9.83416 144.357C8.75382 145.441 7.28856 146.05 5.76072 146.05C4.23288 146.05 2.76762 145.441 1.68728 144.357C0.606931 143.273 0 141.803 0 140.27C0 138.737 0.606931 137.266 1.68728 136.182C2.76762 135.098 4.23288 134.489 5.76072 134.489Z" fill="#98C1D9"/>
<path d="M86.3559 188.439C87.8838 188.439 89.349 189.048 90.4294 190.132C91.5097 191.216 92.1166 192.687 92.1166 194.22C92.1166 195.753 91.5097 197.223 90.4294 198.307C89.349 199.391 87.8838 200 86.3559 200C84.8281 200 83.3628 199.391 82.2825 198.307C81.2021 197.223 80.5952 195.753 80.5952 194.22C80.5952 192.687 81.2021 191.216 82.2825 190.132C83.3628 189.048 84.8281 188.439 86.3559 188.439ZM113.239 188.439C114.767 188.439 116.232 189.048 117.313 190.132C118.393 191.216 119 192.687 119 194.22C119 195.753 118.393 197.223 117.313 198.307C116.232 199.391 114.767 200 113.239 200C111.711 200 110.246 199.391 109.166 198.307C108.086 197.223 107.479 195.753 107.479 194.22C107.479 192.687 108.086 191.216 109.166 190.132C110.246 189.048 111.711 188.439 113.239 188.439ZM59.4726 188.439C61.0004 188.439 62.4657 189.048 63.546 190.132C64.6264 191.216 65.2333 192.687 65.2333 194.22C65.2333 195.753 64.6264 197.223 63.546 198.307C62.4657 199.391 61.0004 200 59.4726 200C57.9447 200 56.4795 199.391 55.3991 198.307C54.3188 197.223 53.7119 195.753 53.7119 194.22C53.7119 192.687 54.3188 191.216 55.3991 190.132C56.4795 189.048 57.9447 188.439 59.4726 188.439ZM86.3559 161.464C87.8838 161.464 89.349 162.073 90.4294 163.157C91.5097 164.241 92.1166 165.712 92.1166 167.245C92.1166 168.778 91.5097 170.248 90.4294 171.332C89.349 172.416 87.8838 173.025 86.3559 173.025C84.8281 173.025 83.3628 172.416 82.2825 171.332C81.2021 170.248 80.5952 168.778 80.5952 167.245C80.5952 165.712 81.2021 164.241 82.2825 163.157C83.3628 162.073 84.8281 161.464 86.3559 161.464ZM113.239 161.464C114.767 161.464 116.232 162.073 117.313 163.157C118.393 164.241 119 165.712 119 167.245C119 168.778 118.393 170.248 117.313 171.332C116.232 172.416 114.767 173.025 113.239 173.025C111.711 173.025 110.246 172.416 109.166 171.332C108.086 170.248 107.479 168.778 107.479 167.245C107.479 165.712 108.086 164.241 109.166 163.157C110.246 162.073 111.711 161.464 113.239 161.464ZM59.4726 161.464C61.0004 161.464 62.4657 162.073 63.546 163.157C64.6264 164.241 65.2333 165.712 65.2333 167.245C65.2333 168.778 64.6264 170.248 63.546 171.332C62.4657 172.416 61.0004 173.025 59.4726 173.025C57.9447 173.025 56.4795 172.416 55.3991 171.332C54.3188 170.248 53.7119 168.778 53.7119 167.245C53.7119 165.712 54.3188 164.241 55.3991 163.157C56.4795 162.073 57.9447 161.464 59.4726 161.464ZM86.3559 134.489C87.8838 134.489 89.349 135.098 90.4294 136.182C91.5097 137.266 92.1166 138.737 92.1166 140.27C92.1166 141.803 91.5097 143.273 90.4294 144.357C89.349 145.441 87.8838 146.05 86.3559 146.05C84.8281 146.05 83.3628 145.441 82.2825 144.357C81.2021 143.273 80.5952 141.803 80.5952 140.27C80.5952 138.737 81.2021 137.266 82.2825 136.182C83.3628 135.098 84.8281 134.489 86.3559 134.489ZM113.239 134.489C114.767 134.489 116.232 135.098 117.313 136.182C118.393 137.266 119 138.737 119 140.27C119 141.803 118.393 143.273 117.313 144.357C116.232 145.441 114.767 146.05 113.239 146.05C111.711 146.05 110.246 145.441 109.166 144.357C108.086 143.273 107.479 141.803 107.479 140.27C107.479 138.737 108.086 137.266 109.166 136.182C110.246 135.098 111.711 134.489 113.239 134.489ZM59.4726 134.489C61.0004 134.489 62.4657 135.098 63.546 136.182C64.6264 137.266 65.2333 138.737 65.2333 140.27C65.2333 141.803 64.6264 143.273 63.546 144.357C62.4657 145.441 61.0004 146.05 59.4726 146.05C57.9447 146.05 56.4795 145.441 55.3991 144.357C54.3188 143.273 53.7119 141.803 53.7119 140.27C53.7119 138.737 54.3188 137.266 55.3991 136.182C56.4795 135.098 57.9447 134.489 59.4726 134.489Z" fill="#98C1D9"/>
</svg>
