<svg width="41" height="50" viewBox="0 0 41 50" fill="none" xmlns="http://www.w3.org/2000/svg">
<path d="M20.4546 0C25.8795 0 31.0822 2.15503 34.9182 5.99101C38.7542 9.82699 40.9092 15.0297 40.9092 20.4546V29.5455C40.9116 32.8221 40.126 36.0513 38.6185 38.9605C37.1111 41.8698 34.9261 44.3738 32.2478 46.2614C33.4455 42.416 34.091 38.3296 34.091 34.091V29.5432H29.5455V34.091L29.5387 34.8069C29.4505 39.7634 28.3435 44.6488 26.2864 49.1592C23.6516 49.9343 20.8888 50.1769 18.1591 49.8728C21.1514 45.1535 22.7361 39.6789 22.7273 34.091V18.1819H18.1819V34.091L18.1728 34.7455C18.0487 39.7906 16.3937 44.6787 13.4273 48.7614C11.2602 47.9675 9.24309 46.8126 7.4614 45.3455C9.99536 42.1421 11.3707 38.1754 11.3637 34.091V20.4546L11.375 20C11.4482 18.5317 11.8763 17.103 12.6228 15.8364L9.33868 12.5523C7.69425 14.8587 6.8129 17.622 6.81822 20.4546V34.091L6.80913 34.6023C6.71292 37.278 5.82727 39.8654 4.26367 42.0387C1.49311 38.4641 -0.0071459 34.0681 2.55916e-05 29.5455V20.4546C2.55916e-05 15.0297 2.15506 9.82699 5.99103 5.99101C9.82701 2.15503 15.0297 0 20.4546 0ZM20.4546 6.81819C17.5091 6.81819 14.7819 7.75001 12.5546 9.34093L15.8364 12.6227C17.2172 11.8084 18.7888 11.3737 20.3918 11.3626C21.9948 11.3515 23.5722 11.7645 24.9641 12.5597C26.356 13.3548 27.5129 14.5039 28.3175 15.8904C29.1221 17.2769 29.5458 18.8515 29.5455 20.4546V25H34.091V20.4546C34.091 16.838 32.6543 13.3695 30.097 10.8122C27.5397 8.25488 24.0712 6.81819 20.4546 6.81819Z" fill="#98C1D9"/>
</svg>
