<svg width="40" height="40" viewBox="0 0 40 40" fill="none" xmlns="http://www.w3.org/2000/svg">
<path d="M20 40C17.2333 40 14.6333 39.4747 12.2 38.424C9.76666 37.3733 7.65 35.9487 5.85 34.15C4.05 32.3513 2.62533 30.2347 1.576 27.8C0.526669 25.3653 0.00133586 22.7653 2.53164e-06 20C-0.0013308 17.2347 0.524002 14.6347 1.576 12.2C2.628 9.76533 4.05267 7.64866 5.85 5.85C7.64733 4.05133 9.764 2.62667 12.2 1.576C14.636 0.525333 17.236 0 20 0C22.764 0 25.364 0.525333 27.8 1.576C30.236 2.62667 32.3527 4.05133 34.15 5.85C35.9473 7.64866 37.3726 9.76533 38.426 12.2C39.4793 14.6347 40.004 17.2347 40 20C39.996 22.7653 39.4706 25.3653 38.424 27.8C37.3773 30.2347 35.9527 32.3513 34.15 34.15C32.3473 35.9487 30.2306 37.374 27.8 38.426C25.3693 39.478 22.7693 40.0027 20 40ZM20 36C24.4667 36 28.25 34.45 31.35 31.35C34.45 28.25 36 24.4667 36 20C36 19.7667 35.992 19.5247 35.976 19.274C35.96 19.0233 35.9513 18.8153 35.95 18.65C35.7833 19.6167 35.3333 20.4167 34.6 21.05C33.8666 21.6833 33 22 32 22H28C26.9 22 25.9587 21.6087 25.176 20.826C24.3933 20.0433 24.0013 19.1013 24 18V16H16V12C16 10.9 16.392 9.95866 17.176 9.176C17.96 8.39333 18.9013 8.00133 20 8H22C22 7.23333 22.2087 6.55866 22.626 5.976C23.0433 5.39333 23.5513 4.918 24.15 4.55C23.4833 4.38333 22.8087 4.25 22.126 4.15C21.4433 4.05 20.7347 4 20 4C15.5333 4 11.75 5.55 8.65 8.65C5.55 11.75 4 15.5333 4 20H14C16.2 20 18.0833 20.7833 19.65 22.35C21.2167 23.9167 22 25.8 22 28V30H16V35.5C16.6667 35.6667 17.3253 35.792 17.976 35.876C18.6267 35.96 19.3013 36.0013 20 36Z" fill="#98C1D9"/>
</svg>
