<svg width="63" height="50" viewBox="0 0 63 50" fill="none" xmlns="http://www.w3.org/2000/svg">
<path d="M12.9063 31.25H12.5C11.1421 31.2561 9.82305 31.7042 8.7425 32.5267C7.66195 33.3491 6.87867 34.5012 6.51115 35.8084C6.14363 37.1157 6.21188 38.5071 6.70556 39.7721C7.19924 41.0372 8.0915 42.107 9.24735 42.8198C10.4032 43.5325 11.7597 43.8495 13.1117 43.7226C14.4638 43.5958 15.7377 43.032 16.7408 42.1167C17.7438 41.2014 18.4215 39.9842 18.6713 38.6494C18.921 37.3147 18.7293 35.9348 18.125 34.7188L24.5625 25C25.247 25.039 25.9333 24.9651 26.5938 24.7812L31.4375 29.625C31.1728 30.6023 31.1494 31.6292 31.3694 32.6175C31.5894 33.6058 32.0463 34.5258 32.7006 35.2985C33.355 36.0711 34.1872 36.6732 35.1258 37.053C36.0643 37.4327 37.0811 37.5788 38.0886 37.4786C39.0961 37.3784 40.0642 37.0349 40.9096 36.4777C41.755 35.9205 42.4523 35.1662 42.9417 34.2799C43.431 33.3935 43.6977 32.4015 43.7187 31.3892C43.7397 30.3769 43.5146 29.3747 43.0625 28.4688L49.5938 18.75H50C51.3579 18.7439 52.677 18.2958 53.7575 17.4733C54.838 16.6509 55.6213 15.4988 55.9888 14.1916C56.3564 12.8843 56.2881 11.4929 55.7944 10.2279C55.3008 8.96284 54.4085 7.89302 53.2526 7.18024C52.0968 6.46747 50.7403 6.15054 49.3883 6.27739C48.0362 6.40424 46.7623 6.96798 45.7592 7.88332C44.7561 8.79865 44.0785 10.0158 43.8287 11.3506C43.579 12.6853 43.7707 14.0652 44.375 15.2812L37.9375 25C37.253 24.961 36.5667 25.0349 35.9062 25.2188L31.0312 20.375C31.296 19.3977 31.3194 18.3708 31.0993 17.3825C30.8793 16.3942 30.4225 15.4742 29.7681 14.7015C29.1138 13.9289 28.2815 13.3268 27.343 12.947C26.4044 12.5673 25.3876 12.4212 24.3801 12.5214C23.3726 12.6216 22.4045 12.9651 21.5591 13.5223C20.7138 14.0795 20.0164 14.8337 19.5271 15.7201C19.0378 16.6065 18.7711 17.5985 18.75 18.6108C18.729 19.6231 18.9542 20.6253 19.4062 21.5312L12.9063 31.25ZM0 6.25C0 2.8125 2.8125 0 6.25 0H56.25C57.9076 0 59.4973 0.65848 60.6694 1.83058C61.8415 3.00268 62.5 4.5924 62.5 6.25V43.75C62.5 45.4076 61.8415 46.9973 60.6694 48.1694C59.4973 49.3415 57.9076 50 56.25 50H6.25C4.5924 50 3.00268 49.3415 1.83058 48.1694C0.65848 46.9973 0 45.4076 0 43.75V6.25Z" fill="#98C1D9"/>
</svg>
