<svg width="32" height="40" viewBox="0 0 32 40" fill="none" xmlns="http://www.w3.org/2000/svg">
<path d="M27.994 4.34C29.1654 4.75277 30.1799 5.5189 30.8974 6.53269C31.615 7.54649 32.0002 8.75797 32 10V34C32 35.5913 31.3679 37.1174 30.2426 38.2426C29.1174 39.3679 27.5913 40 26 40H6C4.4087 40 2.88258 39.3679 1.75736 38.2426C0.632141 37.1174 8.81102e-08 35.5913 8.81102e-08 34V10C-0.000212708 8.75797 0.385025 7.54649 1.10256 6.53269C1.8201 5.5189 2.83457 4.75277 4.006 4.34C4.09368 6.40122 4.97427 8.34887 6.46387 9.77624C7.95348 11.2036 9.93692 12.0003 12 12H20C21.9823 12.0002 23.8941 11.2644 25.3648 9.93522C26.8354 8.60606 27.7603 6.77822 27.96 4.806L27.994 4.34ZM20 0C21.0609 0 22.0783 0.421427 22.8284 1.17157C23.5786 1.92172 24 2.93913 24 4C24 5.06087 23.5786 6.07828 22.8284 6.82843C22.0783 7.57857 21.0609 8 20 8H12C10.9391 8 9.92172 7.57857 9.17157 6.82843C8.42143 6.07828 8 5.06087 8 4C8 2.93913 8.42143 1.92172 9.17157 1.17157C9.92172 0.421427 10.9391 0 12 0H20Z" fill="#98C1D9"/>
</svg>
