<svg width="50" height="50" viewBox="0 0 50 50" fill="none" xmlns="http://www.w3.org/2000/svg">
<path d="M44.0476 23.8095H40.4762V14.2857C40.4762 13.0228 39.9745 11.8116 39.0815 10.9185C38.1884 10.0255 36.9772 9.52381 35.7143 9.52381H26.1905V5.95238C26.1905 4.37371 25.5634 2.8597 24.4471 1.74341C23.3308 0.627124 21.8168 0 20.2381 0C18.6594 0 17.1454 0.627124 16.0291 1.74341C14.9128 2.8597 14.2857 4.37371 14.2857 5.95238V9.52381H4.7619C3.49897 9.52381 2.28776 10.0255 1.39473 10.9185C0.501699 11.8116 0 13.0228 0 14.2857V23.3333H3.57143C7.14286 23.3333 10 26.1905 10 29.7619C10 33.3333 7.14286 36.1905 3.57143 36.1905H0V45.2381C0 46.501 0.501699 47.7122 1.39473 48.6053C2.28776 49.4983 3.49897 50 4.7619 50H13.8095V46.4286C13.8095 42.8571 16.6667 40 20.2381 40C23.8095 40 26.6667 42.8571 26.6667 46.4286V50H35.7143C36.9772 50 38.1884 49.4983 39.0815 48.6053C39.9745 47.7122 40.4762 46.501 40.4762 45.2381V35.7143H44.0476C45.6263 35.7143 47.1403 35.0872 48.2566 33.9709C49.3729 32.8546 50 31.3406 50 29.7619C50 28.1832 49.3729 26.6692 48.2566 25.5529C47.1403 24.4366 45.6263 23.8095 44.0476 23.8095Z" fill="#98C1D9"/>
</svg>
