<svg width="53" height="50" viewBox="0 0 53 50" fill="none" xmlns="http://www.w3.org/2000/svg">
<path d="M27.3621 0.0746923L27.5941 0.0889671H35.7879L35.9771 0.0782607C36.9928 -0.0328161 38.0179 -0.0256303 39.0319 0.0996734C40.3907 0.165794 41.7164 0.54177 42.9076 1.19885C45.1559 2.21951 47.1187 3.86471 48.5177 6.01666C49.8071 7.9942 50.5365 10.2842 50.6283 12.6433C50.72 15.0023 50.1707 17.342 49.0387 19.4138L37.5652 7.7939C37.3989 7.62616 37.201 7.4931 36.9829 7.40244C36.7648 7.31177 36.5309 7.2653 36.2947 7.26573H31.5447C31.1558 7.26521 30.7773 7.39178 30.4669 7.62617L22.8013 13.4325C22.3326 13.7865 21.7914 14.0325 21.2165 14.1527C20.6415 14.273 20.0471 14.2646 19.4759 14.1282C18.9046 13.9918 18.3705 13.7307 17.912 13.3636C17.4534 12.9965 17.0818 12.5326 16.8236 12.005C16.4284 11.19 16.3284 10.263 16.5406 9.38241C16.7527 8.50181 17.264 7.72214 17.987 7.17651L27.3621 0.0746923ZM13.0978 31.676L13.0479 31.7224L10.3249 34.4346L10.2785 34.4775C9.87325 34.8572 9.33628 35.0647 8.78096 35.056C8.22563 35.0474 7.69539 34.8233 7.30217 34.4311C7.10309 34.2351 6.94498 34.0015 6.83706 33.7439C6.72914 33.4863 6.67357 33.2097 6.67357 32.9304C6.67357 32.6511 6.72914 32.3745 6.83706 32.1169C6.94498 31.8593 7.10309 31.6257 7.30217 31.4297L10.0287 28.7211C10.43 28.3212 10.9735 28.0966 11.5401 28.0966C12.1066 28.0966 12.6501 28.3212 13.0514 28.7211C13.8722 29.5347 13.8865 30.8445 13.0978 31.676ZM12.8088 36.9934C12.0236 37.8249 12.0379 39.1347 12.8551 39.9484C13.2565 40.3483 13.8 40.5728 14.3665 40.5728C14.9331 40.5728 15.4765 40.3483 15.8779 39.9484L18.6044 37.2397C18.8281 37.0179 18.9994 36.7489 19.1057 36.4524C19.212 36.1559 19.2507 35.8393 19.2188 35.526C19.187 35.2126 19.0855 34.9103 18.9218 34.6412C18.7581 34.3721 18.5362 34.143 18.2725 33.9707C17.8714 33.7058 17.3928 33.5836 16.9137 33.6237C16.4347 33.6638 15.9831 33.864 15.6316 34.192L15.5817 34.2384L12.8587 36.947L12.8088 36.9934ZM6.37786 24.3172C6.57694 24.5132 6.73504 24.7467 6.84296 25.0044C6.95088 25.262 7.00646 25.5386 7.00646 25.8179C7.00646 26.0972 6.95088 26.3737 6.84296 26.6314C6.73504 26.889 6.57694 27.1226 6.37786 27.3185L3.65133 30.0272C3.25 30.4271 2.70653 30.6517 2.13997 30.6517C1.57341 30.6517 1.02994 30.4271 0.628601 30.0272C0.429522 29.8313 0.271418 29.5977 0.163499 29.3401C0.0555787 29.0824 0 28.8059 0 28.5266C0 28.2472 0.0555787 27.9707 0.163499 27.7131C0.271418 27.4554 0.429522 27.2218 0.628601 27.0259L3.35513 24.3137C3.75647 23.9138 4.29993 23.6892 4.86649 23.6892C5.43305 23.6892 5.97652 23.9138 6.37786 24.3137M24.1574 39.7521C24.3565 39.948 24.5146 40.1816 24.6225 40.4392C24.7304 40.6969 24.786 40.9734 24.786 41.2527C24.786 41.5321 24.7304 41.8086 24.6225 42.0662C24.5146 42.3239 24.3565 42.5575 24.1574 42.7534L21.4309 45.4656C21.0295 45.8655 20.486 46.0901 19.9195 46.0901C19.3529 46.0901 18.8095 45.8655 18.4081 45.4656C18.0675 45.1302 17.8511 44.6887 17.7947 44.2139C17.7383 43.7392 17.8451 43.2593 18.0976 42.8533L18.1083 42.839C18.1937 42.7021 18.2943 42.5751 18.4081 42.4608L21.1346 39.7521C21.536 39.3522 22.0795 39.1276 22.646 39.1276C23.2126 39.1276 23.756 39.3522 24.1574 39.7521ZM5.59987 5.03526C7.5842 3.06444 10.0244 1.61403 12.7039 0.812798C15.3834 0.0115637 18.2193 -0.115711 20.9598 0.442273L15.8315 4.33221C15.0454 4.92782 14.3848 5.67292 13.8877 6.52469C13.3905 7.37646 13.0667 8.31809 12.9347 9.29546C12.8027 10.2728 12.8652 11.2666 13.1185 12.2198C13.3719 13.1729 13.8112 14.0665 14.4111 14.8493C15.6246 16.4321 17.415 17.4706 19.3914 17.7381C21.3679 18.0055 23.3698 17.4802 24.9604 16.2768L32.1478 10.8345H35.3918L42.3081 17.7043L42.3223 17.6865L48.0609 23.5L48.1465 23.5821L51.2335 26.669C51.8876 27.3308 52.2634 28.2179 52.2838 29.1481C52.3042 30.0784 51.9676 30.9811 51.3431 31.6709C50.7186 32.3607 49.8537 32.7852 48.9261 32.8571C47.9984 32.9291 47.0784 32.6431 46.355 32.0578L46.0945 31.8009L45.9018 31.6332L42.8683 28.5997C42.5338 28.2647 42.0798 28.0762 41.6063 28.0759C41.1328 28.0756 40.6785 28.2634 40.3435 28.5979C40.0084 28.9325 39.82 29.3865 39.8196 29.86C39.8193 30.3335 40.0071 30.7878 40.3417 31.1228L43.5607 34.3418C43.6844 34.4608 43.8093 34.5762 43.9354 34.688L44.0425 34.7951C44.5053 35.2574 44.7655 35.8847 44.7658 36.5389C44.7662 37.1931 44.5066 37.8207 44.0443 38.2835C43.5819 38.7464 42.9546 39.0066 42.3004 39.0069C41.6462 39.0072 41.0186 38.7477 40.5558 38.2853L40.0812 37.8142C39.8301 37.5639 39.5102 37.3941 39.1623 37.3263C38.8143 37.2586 38.454 37.296 38.1274 37.4339C37.8008 37.5717 37.5227 37.8037 37.3285 38.1003C37.1343 38.3968 37.0328 38.7445 37.037 39.099C37.0323 39.3389 37.076 39.5772 37.1656 39.7998C37.2551 40.0224 37.3886 40.2246 37.558 40.3944L38.1826 41.019C38.3918 41.2282 38.5578 41.4767 38.6711 41.7501C38.7843 42.0235 38.8426 42.3165 38.8426 42.6124C38.8426 42.9084 38.7843 43.2014 38.6711 43.4748C38.5578 43.7482 38.3918 43.9966 38.1826 44.2059C37.9733 44.4151 37.7249 44.5811 37.4515 44.6944C37.1781 44.8076 36.8851 44.8659 36.5891 44.8659C36.2932 44.8659 36.0002 44.8076 35.7268 44.6944C35.4534 44.5811 35.2049 44.4151 34.9957 44.2059L34.6781 43.8847C34.5694 43.7582 34.4563 43.6356 34.339 43.5171L33.7573 42.9354C33.4208 42.6104 32.9701 42.4305 32.5022 42.4346C32.0343 42.4386 31.5868 42.6263 31.256 42.9571C30.9251 43.288 30.7375 43.7355 30.7334 44.2034C30.7293 44.6712 30.9092 45.122 31.2342 45.4585L31.6696 45.8939C31.7243 45.9653 31.7838 46.0355 31.848 46.1045L32.0229 46.2758C32.3788 46.7376 32.5472 47.3168 32.4942 47.8974C32.4413 48.4781 32.171 49.0173 31.7374 49.4072C31.3038 49.797 30.7389 50.0086 30.1559 49.9997C29.5729 49.9908 29.0148 49.762 28.5933 49.3592L25.5064 46.4506L26.6912 45.2729C27.2214 44.7474 27.6423 44.122 27.9295 43.4329C28.2167 42.7438 28.3646 42.0046 28.3646 41.2581C28.3646 40.5115 28.2167 39.7724 27.9295 39.0833C27.6423 38.3942 27.2214 37.7688 26.6912 37.2432C25.6571 36.213 24.2677 35.6179 22.8084 35.5802C22.7689 34.1283 22.1706 32.7476 21.1382 31.7259C20.105 30.6965 18.717 30.1015 17.259 30.0629C17.2185 28.6105 16.6189 27.2298 15.5852 26.2087C14.9248 25.5487 14.1125 25.0608 13.2197 24.7877C12.3269 24.5146 11.3807 24.4645 10.4641 24.642C10.2315 23.5651 9.69235 22.5786 8.91167 21.8013C7.90614 20.8058 6.56863 20.2163 5.15542 20.1458C3.74222 20.0754 2.35271 20.5289 1.25313 21.4194C0.45512 18.5486 0.437921 15.5169 1.20331 12.6372C1.96871 9.75762 3.48894 7.13451 5.60701 5.03883" fill="#98C1D9"/>
</svg>
