<svg width="60" height="60" viewBox="0 0 60 60" fill="none" xmlns="http://www.w3.org/2000/svg">
<path fill-rule="evenodd" clip-rule="evenodd" d="M26.2193 5.61643C20.7556 5.61643 15.5157 7.78696 11.6523 11.6505C7.78888 15.5141 5.61843 20.7542 5.61843 26.2181C5.61843 31.682 7.78888 36.9221 11.6523 40.7857C15.5157 44.6492 20.7556 46.8198 26.2193 46.8198C31.683 46.8198 36.923 44.6492 40.7864 40.7857C44.6498 36.9221 46.8203 31.682 46.8203 26.2181C46.8203 20.7542 44.6498 15.5141 40.7864 11.6505C36.923 7.78696 31.683 5.61643 26.2193 5.61643ZM6.05272e-08 26.2181C0.000353725 22.0254 1.00612 17.8938 2.93293 14.1701C4.85974 10.4464 7.65141 7.23901 11.0738 4.81707C14.4961 2.39514 18.4493 0.829252 22.6018 0.250771C26.7543 -0.327709 30.985 0.0980843 34.9389 1.49243C38.8929 2.88678 42.4548 5.20903 45.3259 8.26437C48.1971 11.3197 50.2936 15.019 51.4398 19.0521C52.586 23.0851 52.7484 27.3342 51.9133 31.4429C51.0782 35.5516 49.2701 39.4002 46.6405 42.6657L59.1059 55.1354C59.3819 55.3925 59.6033 55.7027 59.7568 56.0473C59.9103 56.3919 59.9929 56.7639 59.9996 57.1411C60.0062 57.5183 59.9368 57.893 59.7955 58.2428C59.6543 58.5926 59.444 58.9104 59.1772 59.1772C58.9104 59.4439 58.5927 59.6542 58.2429 59.7955C57.8931 59.9368 57.5184 60.0062 57.1412 59.9996C56.764 59.9929 56.392 59.9103 56.0474 59.7568C55.7028 59.6033 55.3927 59.3819 55.1355 59.1059L42.6664 46.64C38.8142 49.7429 34.1628 51.6928 29.2496 52.2645C24.3363 52.8362 19.3616 52.0063 14.8999 49.8708C10.4382 47.7352 6.67158 44.3811 4.03506 40.1958C1.39854 36.0105 -0.000335975 31.1647 6.05272e-08 26.2181Z" fill="#98C1D9"/>
</svg>
