<svg width="59" height="60" viewBox="0 0 59 60" fill="none" xmlns="http://www.w3.org/2000/svg">
<path d="M29.5 47.9993L15.6522 58.5723C14.9661 59.1337 14.2176 59.3994 13.4067 59.3695C12.5958 59.3395 11.8784 59.105 11.2546 58.6658C10.6309 58.2267 10.1481 57.6341 9.80624 56.8881C9.46442 56.1421 9.4482 55.3312 9.75759 54.4554L15.0908 37.1457L1.52379 27.5084C0.77526 27.0094 0.307431 26.3544 0.120299 25.5435C-0.0668329 24.7326 -0.035644 23.9841 0.213865 23.2979C0.463374 22.6118 0.900015 22.003 1.52379 21.4715C2.14756 20.9401 2.89609 20.6756 3.76937 20.6781H20.5177L25.9445 2.71343C26.2564 1.84015 26.7404 1.16897 27.3966 0.699893C28.0528 0.230816 28.754 -0.00247529 29.5 1.98023e-05C30.246 0.00251489 30.9484 0.237054 31.6071 0.703636C32.2658 1.17022 32.7486 1.84015 33.0555 2.71343L38.4823 20.6781H55.2306C56.1039 20.6781 56.8524 20.9438 57.4762 21.4753C58.1 22.0067 58.5366 22.6143 58.7861 23.2979C59.0356 23.9816 59.0668 24.7301 58.8797 25.5435C58.6926 26.3569 58.2247 27.0119 57.4762 27.5084L43.9092 37.1457L49.2424 54.4554C49.5543 55.3287 49.5393 56.1396 49.1975 56.8881C48.8557 57.6366 48.3716 58.2292 47.7454 58.6658C47.1191 59.1025 46.4017 59.337 45.5933 59.3695C44.7849 59.4019 44.0364 59.1362 43.3478 58.5723L29.5 47.9993Z" fill="#98C1D9"/>
</svg>
