<svg width="55" height="60" viewBox="0 0 55 60" fill="none" xmlns="http://www.w3.org/2000/svg">
<path fill-rule="evenodd" clip-rule="evenodd" d="M5.53146 0C2.47656 0 0 2.45908 0 5.49239V54.0449C0 57.0782 2.47656 59.5373 5.53146 59.5373H48.6773C51.7322 59.5373 54.2088 57.0782 54.2088 54.0449V5.49239C54.2088 2.45908 51.7322 0 48.6773 0H5.53146ZM15.9307 9.94119C15.9307 12.8835 13.5285 15.2688 10.5651 15.2688C7.60192 15.2688 5.19955 12.8835 5.19955 9.94119C5.19955 6.99887 7.60192 4.61352 10.5651 4.61352C13.5285 4.61352 15.9307 6.99887 15.9307 9.94119ZM11.1532 18.3128C19.1459 26.2488 19.1459 39.1158 11.1532 47.052L18.9759 54.8195C24.1217 49.7101 27.1169 43.2742 27.9618 36.6204C31.0494 37.5099 34.303 37.6785 37.4534 37.1263C36.6361 40.7639 34.8023 44.2215 31.9516 47.052L39.7744 54.8195C52.0873 42.5935 52.0873 22.7713 39.7744 10.5453L31.9516 18.3128C35.155 21.4934 37.0745 25.4661 37.7101 29.5959C34.5116 30.548 31.0289 30.3034 27.9765 28.862C27.1521 22.1665 24.1519 15.6848 18.9759 10.5453L11.1532 18.3128ZM31.585 15.2688C34.5482 15.2688 36.9504 12.8835 36.9504 9.94119C36.9504 6.99887 34.5482 4.61352 31.585 4.61352C28.6216 4.61352 26.2194 6.99887 26.2194 9.94119C26.2194 12.8835 28.6216 15.2688 31.585 15.2688Z" fill="url(#paint0_linear_815_43)"/>
<defs>
<linearGradient id="paint0_linear_815_43" x1="27.1044" y1="0" x2="27.1044" y2="59.5373" gradientUnits="userSpaceOnUse">
<stop stop-color="#24AEDD"/>
<stop offset="1" stop-color="#07C6D0"/>
</linearGradient>
</defs>
</svg>
