<svg width="764" height="848" viewBox="0 0 764 848" fill="none" xmlns="http://www.w3.org/2000/svg">
<path fill-rule="evenodd" clip-rule="evenodd" d="M77.959 0C34.904 0 0 35.024 0 78.229V769.77C0 812.98 34.904 848 77.959 848H686.04C729.1 848 764 812.98 764 769.77V78.229C764 35.024 729.1 0 686.04 0H77.959ZM224.522 141.594C224.522 183.503 190.666 217.476 148.902 217.476C107.138 217.476 73.282 183.503 73.282 141.594C73.282 99.686 107.138 65.712 148.902 65.712C190.666 65.712 224.522 99.686 224.522 141.594ZM157.189 260.832C269.835 373.867 269.835 557.135 157.189 670.17L267.44 780.8C339.962 708.03 382.176 616.361 394.083 521.59C437.599 534.259 483.454 536.662 527.856 528.797C516.338 580.607 490.491 629.856 450.315 670.17L560.566 780.8C734.1 606.666 734.1 324.336 560.566 150.199L450.315 260.832C495.462 306.134 522.514 362.718 531.473 421.54C486.395 435.1 437.311 431.616 394.291 411.087C382.673 315.722 340.389 223.401 267.44 150.199L157.189 260.832ZM445.147 217.476C486.911 217.476 520.767 183.503 520.767 141.594C520.767 99.686 486.911 65.712 445.147 65.712C403.383 65.712 369.527 99.686 369.527 141.594C369.527 183.503 403.383 217.476 445.147 217.476Z" fill="url(#paint0_linear_943_247)"/>
<defs>
<linearGradient id="paint0_linear_943_247" x1="382" y1="0" x2="382" y2="848" gradientUnits="userSpaceOnUse">
<stop stop-color="#24AEDD"/>
<stop offset="1" stop-color="#07C6D0"/>
</linearGradient>
</defs>
</svg>
