<svg width="891" height="389" viewBox="0 0 891 389" fill="none" xmlns="http://www.w3.org/2000/svg">
<path fill-rule="evenodd" clip-rule="evenodd" d="M35.714 0C15.99 0 0 15.943 0 35.609V350.391C0 370.057 15.99 386 35.714 386H314.286C334.01 386 350 370.057 350 350.391V35.609C350 15.943 334.01 0 314.286 0H35.714ZM102.857 64.452C102.857 83.528 87.347 98.993 68.214 98.993C49.082 98.993 33.571 83.528 33.571 64.452C33.571 45.376 49.082 29.911 68.214 29.911C87.347 29.911 102.857 45.376 102.857 64.452ZM72.011 118.728C123.616 170.18 123.616 253.601 72.011 305.054L122.518 355.413C155.742 322.287 175.081 280.561 180.536 237.422C200.471 243.189 221.478 244.282 241.819 240.702C236.542 264.286 224.702 286.703 206.296 305.054L256.804 355.413C336.303 276.148 336.303 147.634 256.804 68.369L206.296 118.728C226.979 139.349 239.372 165.105 243.476 191.88C222.825 198.053 200.339 196.467 180.631 187.122C175.308 143.713 155.937 101.69 122.518 68.369L72.011 118.728ZM203.929 98.993C223.061 98.993 238.571 83.528 238.571 64.452C238.571 45.376 223.061 29.911 203.929 29.911C184.796 29.911 169.286 45.376 169.286 64.452C169.286 83.528 184.796 98.993 203.929 98.993Z" fill="url(#paint0_linear_943_244)"/>
<path d="M376.55 117.208V3.88098H396.678V49.66H449.555V3.88098H469.683V117.208H449.555V66.947H396.678V117.208H376.55Z" fill="#051F42"/>
<path d="M489.214 60.224C489.214 23.889 514.933 1 549.758 1C585.063 1 610.782 23.889 610.782 60.224C610.782 95.599 585.063 120.089 549.758 120.089C514.933 120.089 489.214 95.599 489.214 60.224ZM511.099 60.224C511.099 84.394 526.914 102.002 549.918 102.002C573.082 102.002 588.897 84.394 588.897 60.224C588.897 36.855 573.401 18.767 549.918 18.767C526.595 18.767 511.099 36.855 511.099 60.224Z" fill="#051F42"/>
<path d="M700.98 13.165L687.882 27.571C683.569 21.969 675.102 17.807 667.115 17.807C657.849 17.807 647.146 22.289 647.146 33.333C647.146 43.738 655.932 46.779 668.712 50.781C683.249 55.262 701.78 61.665 701.78 83.914C701.78 108.244 682.77 120.089 660.565 120.089C645.868 120.089 630.692 114.487 621.746 103.922L636.124 90.477C641.715 98.16 651.939 102.962 660.885 102.962C670.31 102.962 681.332 98.32 681.332 86.155C681.332 74.31 669.511 70.949 655.293 66.467C641.555 62.145 626.698 55.422 626.698 34.294C626.698 11.244 647.626 1 668.073 1C679.416 1 692.36 5.00198 700.98 13.165Z" fill="#051F42"/>
<path d="M742.29 117.208V21.488H707.63V3.88098H797.09V21.488H762.42V117.208H742.29Z" fill="#051F42"/>
<path d="M498.438 235.337V251.663H430.225C394.122 251.663 370 230.375 370 193.559C370 159.145 395.879 135.455 430.545 135.455C465.21 135.455 490.61 159.145 490.61 193.559C490.61 213.888 480.546 227.814 470.482 235.016V235.337H498.438ZM430.545 153.543C408.659 153.543 392.045 170.51 392.045 193.559C392.045 217.729 407.541 234.056 430.225 234.056C452.59 234.056 468.725 217.729 468.725 193.559C468.725 170.51 453.389 153.543 430.545 153.543Z" fill="#051F42"/>
<path d="M602.684 138.337V210.046C602.684 237.418 583.035 254.545 557.155 254.545C531.276 254.545 511.627 237.418 511.627 210.046V138.337H531.755V209.246C531.755 222.371 537.826 236.457 557.155 236.457C576.485 236.457 582.555 222.371 582.555 209.246V138.337H602.684Z" fill="#051F42"/>
<path d="M626.625 251.663V138.337H701.55V155.944H646.753V184.756H698.67V201.723H646.753V233.736H704.42V251.663H626.625Z" fill="#051F42"/>
<path d="M794.9 147.62L781.8 162.026C777.48 156.424 769.02 152.262 761.03 152.262C751.76 152.262 741.06 156.744 741.06 167.789C741.06 178.193 749.85 181.234 762.63 185.236C777.16 189.718 795.69 196.12 795.69 218.37C795.69 242.7 776.68 254.545 754.48 254.545C739.78 254.545 724.61 248.942 715.66 238.378L730.04 224.932C735.63 232.616 745.85 237.417 754.8 237.417C764.22 237.417 775.25 232.776 775.25 220.611C775.25 208.766 763.43 205.404 749.21 200.922C735.47 196.601 720.61 189.878 720.61 168.749C720.61 145.7 741.54 135.455 761.99 135.455C773.33 135.455 786.27 139.457 794.9 147.62Z" fill="#051F42"/>
<path d="M836.21 251.663V155.944H801.54V138.337H891V155.944H856.33V251.663H836.21Z" fill="#051F42"/>
<path d="M376.55 386.119V272.792H396.678V368.191H444.762V386.119H376.55Z" fill="#051F42"/>
<path d="M458.14 386.119V272.792H478.268V368.191H526.353V386.119H458.14Z" fill="#051F42"/>
<path d="M631.862 287.198L616.526 299.363C610.615 291.2 599.912 287.678 590.806 287.678C567.483 287.678 551.668 305.766 551.668 329.135C551.668 353.785 566.684 370.913 590.007 370.913C602.148 370.913 611.733 365.63 617.484 357.787L633.619 369.152C623.714 381.637 609.018 389 589.848 389C554.543 389 529.463 364.51 529.463 329.135C529.463 292.8 555.981 269.911 590.806 269.911C605.503 269.911 622.916 275.353 631.862 287.198Z" fill="#051F42"/>
<defs>
<linearGradient id="paint0_linear_943_244" x1="445.5" y1="0" x2="445.5" y2="389" gradientUnits="userSpaceOnUse">
<stop stop-color="#24AEDD"/>
<stop offset="1" stop-color="#07C6D0"/>
</linearGradient>
</defs>
</svg>
