<svg width="138" height="60" viewBox="0 0 138 60" fill="none" xmlns="http://www.w3.org/2000/svg">
<path fill-rule="evenodd" clip-rule="evenodd" d="M5.53146 0C2.47656 0 0 2.45908 0 5.49239V54.0449C0 57.0782 2.47656 59.5373 5.53146 59.5373H48.6773C51.7322 59.5373 54.2088 57.0782 54.2088 54.0449V5.49239C54.2088 2.45908 51.7322 0 48.6773 0H5.53146ZM15.9307 9.94119C15.9307 12.8835 13.5285 15.2688 10.5651 15.2688C7.60192 15.2688 5.19955 12.8835 5.19955 9.94119C5.19955 6.99887 7.60192 4.61352 10.5651 4.61352C13.5285 4.61352 15.9307 6.99887 15.9307 9.94119ZM11.1532 18.3128C19.1459 26.2488 19.1459 39.1158 11.1532 47.052L18.9759 54.8195C24.1217 49.7101 27.1169 43.2742 27.9618 36.6204C31.0494 37.5099 34.303 37.6785 37.4534 37.1263C36.6361 40.7639 34.8023 44.2215 31.9516 47.052L39.7744 54.8195C52.0873 42.5935 52.0873 22.7713 39.7744 10.5453L31.9516 18.3128C35.155 21.4934 37.0745 25.4661 37.7101 29.5959C34.5116 30.548 31.0289 30.3034 27.9765 28.862C27.1521 22.1665 24.1519 15.6848 18.9759 10.5453L11.1532 18.3128ZM31.585 15.2688C34.5482 15.2688 36.9504 12.8835 36.9504 9.94119C36.9504 6.99887 34.5482 4.61352 31.585 4.61352C28.6216 4.61352 26.2194 6.99887 26.2194 9.94119C26.2194 12.8835 28.6216 15.2688 31.585 15.2688Z" fill="url(#paint0_linear_815_43)"/>
<path d="M58.3209 18.0784V0.598607H61.4383V7.65963H69.628V0.598607H72.7455V18.0784H69.628V10.326H61.4383V18.0784H58.3209Z" fill="white"/>
<path d="M75.7705 9.28905C75.7705 3.68468 79.7539 0.15424 85.1477 0.15424C90.6158 0.15424 94.5992 3.68468 94.5992 9.28905C94.5992 14.7453 90.6158 18.5227 85.1477 18.5227C79.7539 18.5227 75.7705 14.7453 75.7705 9.28905ZM79.1601 9.28905C79.1601 13.0171 81.6096 15.733 85.1725 15.733C88.7602 15.733 91.2096 13.0171 91.2096 9.28905C91.2096 5.68457 88.8096 2.89466 85.1725 2.89466C81.5602 2.89466 79.1601 5.68457 79.1601 9.28905Z" fill="white"/>
<path d="M108.569 2.03059L106.541 4.25259C105.873 3.38853 104.561 2.74658 103.324 2.74658C101.889 2.74658 100.231 3.43789 100.231 5.14134C100.231 6.74622 101.592 7.21527 103.572 7.83254C105.823 8.5237 108.693 9.51131 108.693 12.943C108.693 16.6957 105.749 18.5227 102.31 18.5227C100.033 18.5227 97.6829 17.6587 96.2973 16.0291L98.5243 13.9553C99.3902 15.1404 100.974 15.881 102.359 15.881C103.819 15.881 105.526 15.165 105.526 13.2887C105.526 11.4617 103.695 10.9433 101.493 10.252C99.3654 9.58534 97.0643 8.54838 97.0643 5.28956C97.0643 1.73429 100.306 0.15424 103.473 0.15424C105.229 0.15424 107.234 0.771511 108.569 2.03059Z" fill="white"/>
<path d="M114.967 18.0784V3.31434H109.599V0.598607H123.455V3.31434H118.085V18.0784H114.967Z" fill="white"/>
<path d="M77.1992 36.2988V38.8169H66.6342C61.0425 38.8169 57.3064 35.5334 57.3064 29.8549C57.3064 24.5468 61.3146 20.8928 66.6837 20.8928C72.0527 20.8928 75.9867 24.5468 75.9867 29.8549C75.9867 32.9904 74.428 35.1384 72.8693 36.2493V36.2988H77.1992ZM66.6837 23.6827C63.294 23.6827 60.7208 26.2997 60.7208 29.8549C60.7208 33.5829 63.1208 36.1012 66.6342 36.1012C70.0981 36.1012 72.5971 33.5829 72.5971 29.8549C72.5971 26.2997 70.2219 23.6827 66.6837 23.6827Z" fill="white"/>
<path d="M93.345 21.3373V32.3978C93.345 36.6197 90.3017 39.2614 86.2934 39.2614C82.2852 39.2614 79.2419 36.6197 79.2419 32.3978V21.3373H82.3594V32.2744C82.3594 34.2989 83.2997 36.4715 86.2934 36.4715C89.2872 36.4715 90.2274 34.2989 90.2274 32.2744V21.3373H93.345Z" fill="white"/>
<path d="M97.053 38.8169V21.3373H108.658V24.0531H100.17V28.4971H108.212V31.1141H100.17V36.0518H109.102V38.8169H97.053Z" fill="white"/>
<path d="M123.116 22.7691L121.087 24.9912C120.418 24.1271 119.107 23.4851 117.87 23.4851C116.434 23.4851 114.777 24.1764 114.777 25.88C114.777 27.4848 116.138 27.9538 118.118 28.5711C120.368 29.2624 123.238 30.2499 123.238 33.6817C123.238 37.4344 120.294 39.2614 116.855 39.2614C114.579 39.2614 112.229 38.3972 110.843 36.7678L113.07 34.6939C113.936 35.8791 115.519 36.6196 116.905 36.6196C118.364 36.6196 120.072 35.9038 120.072 34.0274C120.072 32.2004 118.242 31.6818 116.039 30.9905C113.911 30.3241 111.61 29.2871 111.61 26.0281C111.61 22.473 114.851 20.8928 118.019 20.8928C119.775 20.8928 121.779 21.5101 123.116 22.7691Z" fill="white"/>
<path d="M129.514 38.8169V24.0531H124.144V21.3373H138V24.0531H132.63V38.8169H129.514Z" fill="white"/>
<path d="M58.3209 59.5556V42.0759H61.4383V56.7904H68.8857V59.5556H58.3209Z" fill="white"/>
<path d="M70.9577 59.5556V42.0759H74.0752V56.7904H81.5227V59.5556H70.9577Z" fill="white"/>
<path d="M97.8641 44.2979L95.4889 46.1742C94.5734 44.9152 92.9157 44.3719 91.5053 44.3719C87.893 44.3719 85.4435 47.1618 85.4435 50.7663C85.4435 54.5684 87.7692 57.2102 91.3816 57.2102C93.262 57.2102 94.7465 56.3954 95.6373 55.1856L98.1363 56.9386C96.6022 58.8643 94.326 60 91.3569 60C85.8888 60 82.0044 56.2226 82.0044 50.7663C82.0044 45.162 86.1115 41.6315 91.5053 41.6315C93.7816 41.6315 96.4786 42.4709 97.8641 44.2979Z" fill="white"/>
<defs>
<linearGradient id="paint0_linear_815_43" x1="69" y1="0" x2="69" y2="60" gradientUnits="userSpaceOnUse">
<stop stop-color="#24AEDD"/>
<stop offset="1" stop-color="#07C6D0"/>
</linearGradient>
</defs>
</svg>
